<svg width="173" height="134" viewBox="0 0 173 134" fill="none" xmlns="http://www.w3.org/2000/svg">
<path d="M167.19 107.78L159.18 102.5L151.09 104.88L146.8 102.52C146.83 102.72 146.8 102.96 146.73 103.13C146.5 103.7 146.19 104.24 145.87 104.77C145.09 106.06 143.23 106.56 141.92 105.8C141.69 105.67 141.47 105.22 141.52 104.98C141.82 103.37 142.16 101.77 142.5 100.16L132.27 94.55L117.91 89.04L100.14 82.08L86.12 71.64L75.21 62.19L59.91 45.33L46.92 37.87V27.24L41.55 20.04L63.8 27.6L82.38 40.88L83.67 31.8L46.7 3.76L20.17 0L11.88 14.5L6.5 27.92L0 44.44L4.7 65.18L8.15 84.81L23.86 90.58L25.28 80.57C25.1 80.82 24.9 81.08 24.68 81.37C24.46 80.91 24.22 80.6 24.28 80.52C24.64 80.08 25.05 79.67 25.46 79.28L27.14 67.45L23.74 34.42L25.06 32.45L28.36 42.71C28.44 42.63 28.52 42.58 28.56 42.59C28.94 42.74 29.23 43.11 29.56 43.4C29.32 43.67 29.08 43.94 28.84 44.21L29.75 47.05L40.84 68.25L54.03 83.1L70.17 90.49L91.36 108.18L148.27 133.54L172.4 124.78L167.18 107.78H167.19ZM6.49 53.56C5.94 52.78 5.47 52.36 5.35 51.85C5.3 51.64 5.96 51.25 6.29 50.94C6.64 51.32 7.15 51.65 7.28 52.1C7.36 52.39 6.9 52.84 6.49 53.56ZM10.13 63.93C9.55 62.47 8.95 61.01 8.36 59.55C8.47 59.44 8.59 59.33 8.7 59.21C9.18 59.59 9.67 59.96 10.13 60.36C10.91 61.05 11.65 61.76 12.42 62.46C12.55 62.58 12.76 62.79 12.86 62.76C14.07 62.32 13.91 63.36 14.02 63.91C14.17 64.66 13.9 65.22 13 65.43C10.94 65.9 10.92 65.92 10.13 63.92V63.93ZM13.47 73.26C13.3 73.28 13.14 73.29 12.97 73.31C12.89 72.83 12.81 72.36 12.72 71.88C13.14 71.83 13.77 71.59 13.96 71.77C14.7 72.51 13.88 72.84 13.46 73.25L13.47 73.26ZM21.01 14.76C20.8 14.52 20.36 14.18 20.41 14.07C20.66 13.53 21.05 13.04 21.57 12.27C21.86 12.81 22.14 13.13 22.07 13.25C21.77 13.78 21.37 14.26 21.01 14.76ZM23.65 20.06C23.5 20.03 23.28 19.43 23.38 19.29C24.13 18.23 24.96 17.22 25.9 16.02C26.61 17.03 27.21 17.78 27.7 18.6C28.09 19.25 27.3 20.35 26.28 20.4C25.41 20.44 24.52 20.24 23.66 20.06H23.65ZM26.49 25.19C26.33 24.61 26.11 24.03 26.04 23.43C26.01 23.16 26.23 22.68 26.44 22.61C28.12 22.05 29.82 21.56 31.52 21.06C31.6 21.04 31.72 21.15 31.82 21.19C31.93 22.86 29.07 24.67 26.49 25.19ZM49.23 61.57C48.38 62.27 47.35 62.74 46.38 63.27C46.27 63.33 45.85 63.08 45.86 63.02C46.01 62.01 46.03 60.92 46.46 60.05C46.67 59.63 47.69 59.62 48.43 59.4C48.88 59.58 49.65 59.73 49.67 59.95C49.72 60.49 49.6 61.28 49.23 61.58V61.57ZM112.92 97.31C112.42 97.01 111.97 96.62 111.51 96.26C111.7 96.08 111.96 95.71 112.07 95.75C112.6 95.94 113.08 96.24 113.84 96.65C113.33 97.03 113.01 97.37 112.92 97.31ZM142.6 120.65C142.06 122.43 140.47 122.63 139.04 123.06C138.89 122.96 138.74 122.86 138.59 122.76C138.92 122.13 139.14 121.4 139.61 120.91C140.13 120.37 140.85 120.01 141.53 119.66C141.82 119.51 142.23 119.58 142.59 119.55C142.59 119.92 142.7 120.32 142.59 120.65H142.6Z" fill="#D21830"/>
</svg>
