<svg width="273" height="271" viewBox="0 0 273 271" fill="none" xmlns="http://www.w3.org/2000/svg">
<path d="M270.268 141.781C270.11 141.716 270.044 141.416 269.873 141.115C270.229 140.92 270.505 140.684 270.822 140.619C272.507 140.28 273.061 139.339 272.995 137.629C272.85 134.116 272.942 130.59 272.903 127.064C272.903 126.268 272.718 125.484 272.613 124.688L272.112 125.132C271.19 124.505 270.281 123.865 269.359 123.238C269.952 122.572 270.44 121.736 271.164 121.266C272.257 120.561 272.257 119.699 271.651 118.889C270.69 117.623 270.624 116.343 271.072 114.907C271.217 114.423 271.203 113.849 271.098 113.339C270.295 109.213 269.504 105.073 268.556 100.986C268.358 100.111 268.306 98.8574 266.725 98.779C265.329 98.7137 263.88 98.4656 262.602 97.9563C259.942 96.8724 257.94 94.992 256.517 92.4064C258.387 91.5837 259.863 91.6751 261.259 92.9809C262.721 94.326 264.446 94.4566 266.514 93.7906C264.776 89.4551 263.182 85.3024 261.456 81.215C255.819 67.9082 247.89 55.9986 238.274 45.2252C232.229 38.4608 225.485 32.3884 218.161 26.9691C209.402 20.4789 200.024 15.0595 189.921 10.946C185.179 9.01332 180.332 7.26345 175.419 5.81394C170.295 4.29912 165.053 3.09772 159.811 2.05302C156.175 1.33479 152.461 1.00832 148.76 0.694915C144.347 0.342329 139.922 -0.0363741 135.496 0.0028021C130.846 0.055037 126.184 0.525151 121.534 0.929972C118.491 1.2042 115.396 1.4262 112.432 2.11832C105.899 3.65925 99.3925 5.35688 92.9515 7.23734C89.4479 8.25592 86.1023 9.78379 82.6776 11.0505C81.8083 11.3639 81.7029 11.8471 81.9268 12.6828C82.6118 15.1379 82.3088 15.843 80.1487 17.397C78.3573 18.6898 73.9975 17.619 73.0887 15.6341C64.4612 19.8782 56.6373 25.3106 49.1426 31.2523C48.1284 32.0489 47.7201 32.95 47.7332 34.2558C47.7859 37.7425 45.3887 38.8264 42.6226 38.6697C41.266 38.5913 40.5942 38.9309 39.8039 39.7405C32.1512 47.5105 25.1439 55.8158 19.7303 65.2834C16.5033 70.9248 13.3684 76.6706 10.8658 82.6384C8.11291 89.207 6.08448 96.0759 3.8453 102.853C3.25257 104.655 2.80474 106.51 4.76731 108.09C6.42694 109.422 7.77045 111.146 9.28519 112.713C8.19194 114.267 6.11082 114.489 4.47754 113.209C4.17459 112.974 3.1472 113.026 3.02865 113.248C2.33056 114.515 1.46123 115.834 1.26365 117.231C0.710443 121.279 0.236263 125.367 0.13089 129.454C-0.0666846 137.132 -0.224744 144.824 1.10559 152.45C1.73783 156.081 1.92223 159.802 2.81791 163.354C4.33265 169.414 5.91324 175.499 8.08657 181.349C10.4311 187.644 13.0786 193.899 16.332 199.762C19.7698 205.952 24.0638 211.672 27.9889 217.587C28.6343 218.567 29.2929 219.533 29.7012 220.134C30.452 220.264 31.0579 220.225 31.4794 220.486C32.1643 220.917 32.7176 221.557 33.363 222.08C34.0611 222.641 35.0094 223.059 33.8503 224.091C33.7186 224.208 33.903 224.887 34.1269 225.109C39.5273 230.267 44.9408 235.412 50.3939 240.518C50.7495 240.858 51.5135 240.936 52.0667 240.884C53.5551 240.727 55.0172 240.349 56.5187 240.205C58.231 240.035 58.4681 241.406 58.7447 242.608C59.0345 243.875 57.9413 243.966 57.1773 244.332C56.8875 244.475 56.6241 244.645 56.2289 244.867C56.6109 245.207 56.8348 245.481 57.1115 245.664C65.0144 251.057 73.2467 255.876 82.0981 259.571C83.3626 260.107 84.1529 260.42 84.7061 260.433L84.6665 260.773C84.6665 260.773 112.05 270.24 138.354 270.684C138.644 270.971 139.118 271.05 139.816 270.971C142.464 270.697 145.124 270.593 147.772 270.305C152 269.848 156.281 269.6 160.404 268.712C166.95 267.289 173.443 265.539 179.871 263.685C187.155 261.582 194.018 258.383 200.696 254.857C208.427 250.783 215.685 245.951 222.508 240.479C229.937 234.524 236.654 227.878 242.674 220.539C248.957 212.873 254.383 204.62 258.651 195.688C261.298 190.164 263.63 184.483 266.093 178.881C265.948 178.803 265.803 178.725 265.658 178.646C265.079 179.012 264.525 179.43 263.906 179.73C263.577 179.887 262.866 179.939 262.813 179.835C262.352 178.751 261.404 177.406 261.72 176.544C262.655 174.023 262.352 171.777 261.391 169.401C260.113 166.253 260.429 165.274 263.09 163.041C264.934 161.5 266.62 161.879 267.555 164.112C268.055 165.326 268.451 166.58 268.951 167.938C269.32 166.306 269.702 164.843 269.979 163.354C270.637 159.855 271.454 156.368 271.77 152.829C271.928 150.988 270.663 149.316 272.139 147.175C273.337 145.425 272.955 142.891 270.268 141.781ZM6.70354 125.628C5.86056 124.452 5.14929 123.813 4.96489 123.055C4.88586 122.729 5.8869 122.141 6.4006 121.684C6.92746 122.259 7.70459 122.768 7.90216 123.434C8.03388 123.878 7.32261 124.557 6.70354 125.641V125.628ZM12.2488 141.298C11.3663 139.091 10.4443 136.884 9.54862 134.691C9.71985 134.521 9.89108 134.351 10.0623 134.181C10.7868 134.756 11.5507 135.304 12.2488 135.918C13.4343 136.963 14.567 138.034 15.7393 139.091C15.9369 139.274 16.2662 139.588 16.4111 139.535C18.2551 138.869 18.018 140.449 18.1761 141.272C18.4 142.395 17.9917 143.244 16.6218 143.57C13.4869 144.289 13.4606 144.315 12.2488 141.298ZM17.3331 155.402C17.0828 155.428 16.8325 155.454 16.5823 155.48C16.4506 154.762 16.332 154.044 16.2003 153.325C16.8457 153.26 17.7941 152.881 18.0839 153.169C19.2034 154.279 17.9653 154.788 17.3331 155.415V155.402ZM28.8187 67.0071C28.4895 66.6545 27.8309 66.1322 27.9099 65.9624C28.2919 65.1397 28.8846 64.4084 29.6749 63.2462C30.1096 64.0559 30.5442 64.539 30.4389 64.7219C29.991 65.5315 29.372 66.2497 28.8319 66.9941L28.8187 67.0071ZM231.926 69.9715C233.994 70.533 235.337 71.9433 235.508 73.4581C235.68 74.9207 235.034 75.6651 233.585 75.8348C232.084 76.0177 231.952 75.0121 231.926 73.9674C231.899 72.7007 231.926 71.421 231.926 69.9845V69.9715ZM233.401 88.9066C234.152 89.873 235.06 90.7348 234.942 90.9177C234.297 91.884 233.388 92.6806 232.571 93.5294C232.071 93.0462 231.056 92.3149 231.162 92.1191C231.662 91.1005 232.452 90.2125 233.401 88.9066ZM221.718 41.7254C222.244 41.7254 222.771 42.287 223.298 42.6134C222.705 43.0444 222.113 43.4753 221.283 44.076C220.782 43.4361 220.493 43.0574 220.203 42.6787C220.703 42.3392 221.217 41.7385 221.718 41.7385V41.7254ZM199.76 32.3623C200.353 31.9053 201.236 31.7877 202.039 31.5005C202.737 31.8008 203.343 32.0489 203.949 32.3101C203.607 32.8194 203.304 33.3548 202.908 33.838C202.579 34.2428 202.171 34.6084 201.749 34.9218C201.038 35.4703 200.393 36.2538 199.431 35.0785C198.509 33.9555 198.838 33.0675 199.747 32.3754L199.76 32.3623ZM183.322 99.1055C182.848 99.1838 182.176 98.2436 181.597 97.7604C182.321 97.0553 182.94 96.0889 183.81 95.7363C184.231 95.5666 185.114 96.5721 186.286 97.3948C184.995 98.1914 184.205 98.9488 183.309 99.1055H183.322ZM183.691 84.7148C183.968 83.5003 184.376 82.325 184.85 80.8102C186.576 82.7168 186.655 84.4928 185.364 85.5375C185.048 85.7856 184.455 85.9684 184.113 85.8378C183.849 85.7333 183.612 85.0673 183.691 84.7148ZM132.348 32.9239C133.007 31.3046 134.627 31.2001 136.655 30.73C136.023 32.963 135.483 34.8174 134.943 36.7239C133.388 35.9665 131.953 33.9033 132.348 32.9239ZM132.901 42.1303C132.993 41.843 133.257 41.4512 133.494 41.412C133.731 41.3728 134.126 41.6732 134.258 41.9344C134.627 42.6395 134.89 43.41 135.18 44.1021C134.627 45.8259 134.205 47.4582 133.56 49.0122C133.388 49.404 132.387 49.8349 132.019 49.6651C131.571 49.4693 131.057 48.5943 131.149 48.1373C131.61 46.1001 132.269 44.1152 132.888 42.1303H132.901ZM98.1411 109.004C98.971 108.664 99.8666 108.338 100.749 108.299C101.092 108.286 101.658 109.017 101.777 109.487C101.987 110.362 101.921 111.302 101.974 112.216C101.842 112.373 101.711 112.53 101.579 112.7C100.42 111.838 99.2212 111.002 98.1148 110.062C97.9304 109.905 97.9963 109.069 98.1411 109.004ZM119.203 16.8486C119.98 16.4829 121.165 16.953 122.166 17.0706C122.114 17.4884 122.179 18.1675 121.969 18.272C120.836 18.8335 119.624 19.2514 118.452 19.7215C118.241 19.5648 118.017 19.4081 117.806 19.2514C118.254 18.4156 118.518 17.175 119.203 16.8486ZM99.2344 21.1971C100.104 20.5311 101.289 20.2961 102.356 19.8782C102.54 20.1655 102.725 20.4528 102.896 20.727C101.908 21.8109 100.947 22.9209 99.9061 23.9525C99.8139 24.0439 98.8656 23.5869 98.8524 23.3779C98.8261 22.6336 98.7866 21.5366 99.2344 21.1971ZM67.6093 135.422C67.9254 134.795 69.4928 134.769 70.6124 134.429C71.2973 134.704 72.4828 134.939 72.5091 135.252C72.575 136.075 72.4037 137.263 71.8374 137.72C70.5465 138.765 68.9791 139.496 67.4907 140.293C67.3327 140.384 66.6872 140.005 66.7004 139.914C66.9243 138.386 66.9507 136.741 67.6224 135.422H67.6093ZM53.318 35.627C54.1873 34.9218 55.2674 34.4648 56.2421 33.8902C56.4002 34.0469 56.5582 34.2036 56.7295 34.3473C56.1631 35.9927 55.6231 37.6381 55.004 39.2573C54.925 39.4532 54.3717 39.6491 54.1478 39.5707C53.0019 39.1659 52.3697 36.3844 53.318 35.627ZM32.8493 74.9991C32.6254 74.9468 32.2829 74.0458 32.4278 73.8368C33.5737 72.2306 34.825 70.7158 36.2607 68.9006C37.3408 70.4285 38.2628 71.5646 39.0136 72.8052C39.6063 73.7977 38.3945 75.4431 36.8403 75.5214C35.5099 75.5867 34.1533 75.2864 32.8493 74.9991ZM34.4299 167.638C34.0874 166.946 33.7186 166.462 33.824 166.358C34.443 165.601 35.1543 164.908 35.8788 164.242C35.9051 164.216 36.5373 164.765 36.5242 164.804C35.9314 165.666 35.2992 166.502 34.443 167.651L34.4299 167.638ZM40.3176 112.021C39.962 111.524 39.6063 111.015 39.0663 110.258C39.6063 109.722 40.1464 108.965 40.3571 109.043C40.9367 109.265 41.3845 109.84 41.885 110.271C41.3582 110.858 40.8445 111.433 40.3176 112.021ZM37.1959 82.769C36.9588 81.8941 36.6164 81.0191 36.511 80.1181C36.4715 79.7133 36.7876 78.982 37.1169 78.8775C39.6722 78.0287 42.267 77.2843 44.8618 76.5269C44.9804 76.4878 45.1648 76.6575 45.3097 76.7228C45.4809 79.2432 41.1211 81.9724 37.1827 82.769H37.1959ZM51.0525 232.997C50.6442 234.015 50.0383 234.146 49.4587 233.14C48.5104 231.521 47.6015 229.863 46.719 228.204C46.179 227.172 46.5478 226.585 47.6674 226.258C51.013 225.318 52.0931 226.049 52.3433 229.405C51.9218 230.607 51.5267 231.808 51.0525 232.984V232.997ZM49.7353 172.535C50.552 171.111 51.2237 169.91 51.9745 168.735C51.9877 168.709 52.9097 169.022 53.0282 169.309C53.6341 170.942 52.3828 172.3 49.7485 172.522L49.7353 172.535ZM65.5413 172.639C64.7247 171.085 64.8169 169.466 65.7784 167.951C66.134 167.39 66.5292 166.828 66.9375 166.253L70.4016 167.977C70.4807 170.785 69.7036 172.091 67.0429 173.214C66.6741 173.37 65.7389 173.005 65.5413 172.626V172.639ZM78.7393 230.659C78.5812 231.116 77.0006 231.221 76.0655 231.26C74.037 231.338 71.9954 231.26 69.9538 231.234C69.0977 231.234 68.2547 231.234 67.3985 231.234C67.8859 229.066 68.1756 227.316 68.6893 225.631C68.9264 224.835 69.4796 224.038 70.1119 223.503C70.5729 223.124 71.4817 222.968 72.0481 223.15C72.4037 223.255 72.5486 224.169 72.6935 224.744C72.8121 225.24 72.6408 225.88 72.8911 226.284C73.2336 226.833 73.7868 227.473 74.3531 227.59C74.7615 227.682 75.4859 227.094 75.8152 226.637C77.106 224.796 77.1719 224.783 78.1993 226.755C78.3046 226.963 78.5286 227.146 78.5549 227.355C78.6866 228.478 79.0686 229.706 78.7261 230.672L78.7393 230.659ZM79.9906 174.324C79.2267 174.833 78.3837 175.329 77.5143 175.59C77.0138 175.747 75.9074 175.512 75.8679 175.316C75.6967 174.376 75.1961 173.148 76.6977 172.731C77.2509 172.574 77.8568 172.639 78.4364 172.6C78.4364 172.6 78.4364 172.613 78.4364 172.626C78.792 172.6 79.1608 172.482 79.4769 172.574C79.6218 172.613 79.7799 172.678 79.9379 172.744L80.175 172.861C80.3594 172.966 80.5043 173.083 80.5438 173.214C80.6229 173.514 80.3067 174.102 79.9906 174.324ZM157.348 261.478C157.097 261.478 156.584 260.812 156.636 260.537C156.715 260.146 157.203 259.832 157.519 259.48C157.875 259.806 158.217 260.12 158.797 260.642C158.151 261.047 157.756 261.465 157.361 261.478H157.348ZM168.926 191.731C168.162 191.287 167.49 190.686 166.779 190.151C167.068 189.877 167.464 189.315 167.635 189.38C168.438 189.668 169.176 190.125 170.335 190.739C169.558 191.3 169.07 191.822 168.926 191.744V191.731ZM187.616 257.221C186.997 258.474 185.97 259.61 184.89 260.551C184.178 261.177 183.454 260.211 183.586 258.644C183.638 257.952 183.704 257.247 183.744 256.555C183.81 255.51 183.599 254.308 185.337 254.517C186.879 254.713 188.183 256.032 187.603 257.208L187.616 257.221ZM189.105 171.529C188.341 171.19 187.669 170.602 187.037 170.027C186.997 169.988 187.511 169.322 187.945 168.709C188.894 169.466 189.592 170.04 190.303 170.602C189.895 170.928 189.315 171.621 189.105 171.529ZM195.032 147.357C194.926 147.423 193.899 146.261 193.965 146.195C194.729 145.242 195.572 144.341 196.507 143.583C196.612 143.492 197.469 144.328 198.364 145.033C197.047 145.986 196.086 146.744 195.032 147.357ZM214.157 227.003C213.327 229.68 210.917 229.993 208.73 230.646L208.045 230.189C208.546 229.249 208.875 228.139 209.6 227.394C210.39 226.585 211.483 226.036 212.524 225.501C212.972 225.266 213.591 225.383 214.144 225.331C214.144 225.893 214.302 226.493 214.144 227.003H214.157ZM220.453 200.493C220.097 201.355 219.636 202.178 219.149 202.975C217.964 204.92 215.119 205.678 213.13 204.542C212.787 204.346 212.445 203.667 212.511 203.301C213.156 199.945 213.88 196.602 214.592 193.259C214.829 193.207 215.066 193.154 215.316 193.102C217.028 195.126 218.78 197.137 220.44 199.214C220.664 199.488 220.611 200.128 220.453 200.506V200.493ZM219.795 98.6354C219.452 98.6092 219.149 97.9955 218.82 97.6429C219.136 97.3817 219.452 96.9377 219.768 96.9247C220.19 96.9247 220.598 97.2773 221.362 97.6429C220.598 98.1522 220.177 98.6615 219.795 98.6354ZM223.18 52.8645C223.18 52.8645 222.35 52.0549 222.376 52.0157C223.074 51.2191 223.825 50.4487 224.629 49.7696C224.694 49.7174 225.261 50.2397 225.919 50.749C224.852 51.5978 224.036 52.2638 223.18 52.8645ZM230.332 146.3C228.988 145.477 227.987 144.902 227.052 144.223C226.907 144.119 226.947 143.479 227.118 143.309C227.355 143.061 227.935 142.8 228.145 142.918C229.041 143.44 229.897 144.054 230.648 144.772C230.819 144.929 230.477 145.621 230.332 146.3ZM231.926 97.8127C231.675 98.3742 230.925 98.8051 230.292 99.0532C230.108 99.1316 229.239 98.2697 229.304 98.0216C229.502 97.3817 230.042 96.8463 230.648 95.9844C231.254 96.8071 232.071 97.5123 231.926 97.8127ZM232.479 140.528C232.229 140.436 231.926 139.81 232.018 139.561C232.176 139.13 232.545 138.634 232.94 138.464C234.744 137.733 236.299 138.895 237.063 141.847C235.337 141.364 233.888 140.998 232.479 140.528ZM247.205 77.7283C246.493 78.4205 245.743 79.0995 244.9 79.5957C244.623 79.7525 243.741 79.4782 243.583 79.1779C242.937 77.8851 242.384 76.5269 241.989 75.1427C241.87 74.7118 242.358 74.098 242.687 73.3014C244.557 74.6204 246.046 75.639 247.481 76.7228C247.6 76.8142 247.429 77.5063 247.205 77.7153V77.7283ZM256.385 85.9553C255.266 86.4516 254.159 86.9609 253.027 87.4049C253 87.4049 252.552 86.4907 252.592 86.4777C253.606 85.89 254.634 85.3416 255.7 84.8584C255.885 84.7801 256.227 85.0543 256.491 85.1588C256.451 85.4199 256.425 85.6811 256.385 85.9553Z" fill="#D21830"/>
<path d="M142.298 234.921C139.418 234.388 137.096 233.963 134.542 233.502C132.603 230.718 131.996 227.354 131.498 223.452C130.621 216.582 129.977 209.65 127.339 202.973C122.607 191.007 121.623 177.448 116.733 165.437C118.283 161.503 113.024 159.601 114.489 155.694C112.577 152.923 113.736 149.595 113.068 146.55C112.238 142.723 111.665 138.732 111.572 134.827C111.363 126.643 111.448 118.471 111.611 110.322C111.761 102.469 114.816 90.5744 118.976 82.177C120.556 78.9763 122.308 75.9338 123.776 72.649C125.234 69.3819 126.437 65.9016 127.701 62.61C132.668 62.0252 135.113 66.9901 138.005 70.587C141.724 75.2091 144.342 81.0368 148.441 85.4628C150.543 87.7348 151.727 92.5492 151.999 96.2674C152.333 100.863 154.018 105.138 154.103 109.568C154.199 113.899 155.324 117.951 155.847 122.145C155.954 122.984 156.182 123.872 156.106 124.669C154.675 138.961 156.509 153.624 155.071 167.967C154.489 173.728 153.776 179.457 152.318 184.707C150.391 191.639 148.958 198.574 148.216 205.962C147.519 212.803 145.899 219.368 145.503 226.384C145.323 229.439 143.379 232.178 142.296 234.905L142.298 234.921Z" fill="white"/>
<path d="M130.069 54.02C131.774 55.5278 133.151 56.7407 134.668 58.0722C134.951 60.158 134.151 61.9114 133.087 63.8545C131.214 67.275 129.166 70.6204 128.521 74.7341C127.368 82.1077 123.18 88.5289 122.115 95.9922C119.691 97.045 122.475 100.207 120.117 101.286C120.387 103.354 118.438 104.311 117.791 105.95C116.973 108.007 115.926 110.022 114.595 111.788C111.813 115.494 108.843 119.065 105.83 122.591C102.93 125.992 96.6775 129.895 90.9447 131.766C88.7631 132.481 86.5246 133.051 84.3868 133.853C82.2621 134.652 80.2294 135.657 78.2231 136.552C74.7453 134.617 74.9066 131.344 74.2864 128.479C73.4871 124.796 73.842 121.066 72.7224 117.301C72.1495 115.37 73.0869 112.721 74.234 110.959C75.6535 108.783 76.0687 106.15 77.5934 104.157C79.0741 102.202 79.7786 99.916 80.9304 97.8331C81.159 97.4156 81.3262 96.9227 81.66 96.6046C87.6994 90.9255 91.7219 83.6411 97.7833 77.9427C100.221 75.656 102.733 73.4413 105.565 71.7671C109.306 69.5572 112.723 67.1279 115.846 64.1936C118.744 61.481 122.152 59.2972 124.915 56.3746C126.123 55.1052 128.379 54.754 130.064 54.028L130.069 54.02Z" fill="white"/>
<path d="M199.039 133.317C197.108 134.542 195.553 135.532 193.845 136.625C191.644 136.25 190.029 134.901 188.279 133.229C185.199 130.286 182.237 127.191 178.168 125.253C170.875 121.783 165.246 115.588 157.841 112.177C157.312 109.43 153.441 111.208 152.871 108.52C150.691 108.138 150.152 105.893 148.619 104.733C146.698 103.27 144.87 101.593 143.363 99.7101C140.197 95.7715 137.212 91.6874 134.283 87.5737C131.456 83.6133 128.875 76.1534 128.258 69.8513C128.02 67.4519 127.944 65.0418 127.607 62.6588C127.27 60.2899 126.701 57.9475 126.239 55.6664C129.01 52.8098 132.326 54.0007 135.402 54.2846C139.357 54.6476 143.098 56.1754 147.209 56.2449C149.318 56.282 151.819 58.0501 153.364 59.7479C155.272 61.8478 157.874 63.0902 159.571 65.2372C161.238 67.3284 163.421 68.7501 165.293 70.5537C165.669 70.9129 166.136 71.2348 166.387 71.6676C170.836 79.4742 177.386 85.7762 181.85 93.6108C183.64 96.7601 185.34 99.961 186.413 103.31C187.829 107.734 189.543 111.904 191.841 115.94C193.963 119.683 195.428 123.766 197.795 127.44C198.822 129.043 198.67 131.402 199.032 133.31L199.039 133.317Z" fill="white"/>
</svg>
