<svg width="94" height="94" viewBox="0 0 94 94" fill="none" xmlns="http://www.w3.org/2000/svg">
<g clip-path="url(#clip0_51_11)">
<mask id="mask0_51_11" style="mask-type:luminance" maskUnits="userSpaceOnUse" x="-1" y="0" width="126" height="95">
<path d="M124.99 0.00268555H-0.0141602V94.0039H124.99V0.00268555Z" fill="white"/>
</mask>
<g mask="url(#mask0_51_11)">
<path d="M-0.449219 -0.0197754H191.865V93.9591H-0.449219V-0.0197754Z" fill="#006400"/>
<path d="M-0.449219 13.4058H191.865V80.5335H-0.449219V13.4058Z" fill="#FFD200"/>
<path d="M-0.449219 26.8313H191.865V67.1079H-0.449219V26.8313Z" fill="#D40000"/>
<path d="M-0.449219 40.2568H191.865V53.6824H-0.449219V40.2568Z" fill="black"/>
<path d="M-0.449219 -0.0197754V93.9591L63.6555 46.9697L-0.449219 -0.0197754Z" fill="black" stroke="black" stroke-width="23.1461"/>
<path d="M-0.449219 -0.0197754V93.9591L63.6555 46.9697L-0.449219 -0.0197754Z" fill="white"/>
<path d="M23.9334 23.3406L36.6398 61.5363L3.39697 37.9297H44.4927L11.2269 61.5363L23.9334 23.3406Z" fill="#D40000"/>
<path d="M18.5074 56.7479L20.7511 56.3451L24.895 56.1885L26.4289 56.3228L29.8631 56.8822L30.115 56.5465V54.1299L30.5271 52.049L31.2139 49.9456L31.9694 48.2674L32.931 46.5221L34.4878 46.9025H34.8999L34.9457 46.6116L31.6489 43.8594L28.2147 41.2861L23.2466 37.6612L22.7887 37.5494L22.2621 33.7455L21.8729 32.6043L21.3463 32.1568L20.3619 31.8435L19.2629 31.8883L18.7593 32.1568L17.7061 32.3805L17.1566 32.47L16.7903 32.8952L16.7445 33.4322L18.2785 33.4769L18.6677 33.6336L18.6219 33.7902L17.7519 33.9021L17.3398 34.0363L17.8206 34.3944L18.3243 34.5734L18.9653 34.7971L19.1027 35.2446L19.1485 41.0176L18.8051 41.9127L18.6906 43.5909L19.1943 45.6047L17.9122 47.0368L17.1795 48.3122L17.0422 49.0953L16.653 49.8785L16.6072 50.3708L16.859 50.9078L17.8435 54.0852L18.3472 56.7031L18.5074 56.7479Z" fill="#FFCC00"/>
<path d="M19.6979 31.7541C19.2858 31.7541 19.1026 31.7988 18.7134 32.0002C18.3909 32.1807 18.0309 32.2877 17.6603 32.3135C17.0879 32.3135 16.63 32.7162 16.63 33.2309V33.5665L17.4542 33.5441C19.881 33.6113 17.6832 33.835 17.5 33.8574C16.9047 33.9693 17.6374 34.4392 18.3471 34.6853C19.1026 34.9091 19.0568 34.7748 19.0568 38.0417C19.0568 40.7044 19.0568 41.0848 18.8279 41.689C18.5303 42.584 18.5303 43.9266 18.8279 44.8216C18.9652 45.1796 19.0568 45.4929 19.0568 45.56C19.0568 45.6048 18.6905 46.0299 18.2555 46.5222C17.4542 47.4172 16.9734 48.3346 16.9734 48.9835C16.9449 49.1923 16.8664 49.3916 16.7445 49.5653C16.4469 49.9457 16.4469 50.5946 16.7216 50.8407C17.0192 51.1092 18.2326 55.7187 18.2555 56.5913C18.2555 56.9046 18.3013 56.9046 20.1558 56.5466C21.6668 56.2557 25.2155 56.1886 27.0241 56.4123C27.8483 56.5242 28.8099 56.7032 29.1533 56.7703C30.2523 57.0612 30.2065 57.106 30.2065 55.8082C30.2149 53.7633 30.6108 51.7377 31.3741 49.8338C31.8116 48.7489 32.3399 47.7011 32.9538 46.7012C32.9538 46.7012 33.3659 46.7459 33.8696 46.8802C34.8083 47.104 35.083 47.0816 35.083 46.6564C35.083 46.4327 34.0985 45.6271 29.2678 41.9575C27.3194 40.3989 25.3108 38.9135 23.2465 37.5047C23.1092 37.5047 22.9718 37.4376 22.9489 37.3481L22.6055 35.2223C22.4452 34.1259 22.2163 33.0519 22.1247 32.8281C21.8042 32.1568 21.186 31.8212 20.1558 31.7541C20.0032 31.7493 19.8505 31.7493 19.6979 31.7541ZM19.7208 31.9778H20.1787C21.6897 32.0673 21.9644 32.4701 22.3765 35.1105C22.4877 35.809 22.5794 36.5104 22.6513 37.2138C22.6513 37.3928 22.4452 37.6166 21.9186 37.9522C21.0523 38.5464 20.2807 39.2627 19.6292 40.0779L19.3316 40.4807L19.2629 39.5409V36.9005C19.3316 34.9538 19.2629 34.7748 18.6218 34.5511C18.0953 34.3721 17.4084 34.193 17.5916 34.0812C17.8205 33.9469 18.0495 34.0364 18.5989 33.8798C18.8279 33.835 18.805 33.8574 18.7592 33.6784C18.7134 33.3875 18.3929 33.2309 17.5458 33.2756C16.859 33.3204 16.7903 33.298 16.8361 33.119C16.9276 32.761 17.2939 32.5372 17.8663 32.4701C18.2167 32.4305 18.5575 32.3321 18.8737 32.1792C19.1292 32.0291 19.4226 31.9516 19.7208 31.9555V31.9778ZM23.1321 37.7508H23.2236C23.6128 37.8179 34.8541 46.4103 34.8541 46.6564C34.8541 46.7459 34.7625 46.8131 34.6251 46.8131C34.5335 46.8131 31.6717 46.0299 28.2833 45.0677C22.8802 43.5014 22.1018 43.2777 21.8729 42.9868C21.7136 42.7901 21.625 42.5477 21.6209 42.2969C21.6168 42.0462 21.6973 41.801 21.85 41.5995C21.9599 41.4691 22.0381 41.3161 22.0789 41.152C22.0789 40.8834 21.5065 41.5547 21.3921 41.9351C21.2776 42.3826 21.5065 43.1434 21.85 43.3896C21.9873 43.5014 23.0176 43.8371 24.1394 44.1727C26.0626 44.7097 26.1999 44.7769 26.2915 45.0901C26.5204 45.8285 25.7191 46.7012 24.5744 46.9473C24.1452 47.0478 23.7406 47.2303 23.3839 47.4843C22.1961 48.4459 20.869 49.2301 19.446 49.8114C19.3545 49.8786 19.24 50.2366 19.1713 50.5722C19.0339 51.3106 18.9881 51.4225 18.7592 51.4225C18.6447 51.4225 18.6218 51.3554 18.7134 51.1092C18.8737 50.6617 18.8508 50.1247 18.6905 50.1247C18.576 50.1247 18.5303 50.2813 18.5303 50.5275C18.5303 50.7512 18.4616 51.0197 18.37 51.0869C18.2555 51.2211 18.2326 51.1316 18.2784 50.5722C18.3242 50.1918 18.3013 49.9009 18.2555 49.9009C18.141 49.9009 17.935 50.4603 17.8663 50.9526C17.8205 51.2435 17.8205 51.2435 17.7289 50.8855C17.6603 50.617 17.6832 50.438 17.8892 50.1023C18.0193 49.8592 18.0972 49.5927 18.1182 49.3192C18.1182 49.0283 18.3471 48.7374 19.4231 47.6857C20.11 46.9921 20.9571 46.1194 21.2547 45.739C21.7813 45.1125 21.8042 45.0677 21.7813 44.4188C21.7813 44.0608 21.7355 43.7252 21.6897 43.6804C21.5523 43.5462 21.3692 44.2622 21.4608 44.6426C21.5065 45.0006 21.4608 45.1125 20.7052 45.9852C20.1617 46.5934 19.5886 47.1758 18.9881 47.7305C18.0953 48.536 17.7747 48.9835 17.7747 49.3863C17.7747 49.5206 17.6832 49.8338 17.5458 50.1247C17.4084 50.4156 17.3626 50.7065 17.4084 50.7736C17.4542 50.8407 17.4084 50.8407 17.3397 50.7736C17.2253 50.6617 17.2253 50.4827 17.3168 50.1023C17.3693 49.9129 17.3848 49.7156 17.3626 49.5205C17.2482 49.2968 17.0879 49.5653 17.0192 50.1247C16.9734 50.438 16.9047 50.6841 16.8361 50.6393C16.6758 50.5498 16.7216 49.9681 16.9276 49.6548C17.0421 49.4982 17.1566 49.1402 17.2253 48.8493C17.3855 48.0214 17.7518 47.3501 18.5531 46.4551C18.8098 46.1821 19.0542 45.8984 19.2858 45.6048L19.0568 44.8664C18.7498 43.8686 18.7339 42.8069 19.011 41.8009C19.3087 40.9506 19.9039 40.1003 20.8426 39.1829C21.7584 38.3102 22.6513 37.7732 23.1321 37.7508ZM26.5662 44.9559C26.5952 44.9538 26.6244 44.9557 26.6521 44.9615C26.6798 44.9673 26.7053 44.9768 26.727 44.9895C26.7486 45.0022 26.7659 45.0177 26.7776 45.035C26.7894 45.0524 26.7954 45.0712 26.7952 45.0901C26.7811 45.1164 26.7548 45.1393 26.72 45.1554C26.6851 45.1716 26.6434 45.1802 26.6006 45.1802C26.5578 45.1802 26.5161 45.1716 26.4812 45.1554C26.4463 45.1393 26.42 45.1164 26.406 45.0901C26.4048 45.0591 26.4201 45.0288 26.4493 45.0043C26.4785 44.9799 26.5198 44.9627 26.5662 44.9559ZM27.1386 45.023C27.1675 45.0209 27.1968 45.0228 27.2245 45.0286C27.2522 45.0344 27.2777 45.0439 27.2993 45.0566C27.321 45.0693 27.3382 45.0848 27.35 45.1022C27.3617 45.1195 27.3677 45.1383 27.3675 45.1572C27.3535 45.1836 27.3272 45.2064 27.2923 45.2225C27.2574 45.2387 27.2157 45.2474 27.1729 45.2474C27.1302 45.2474 27.0884 45.2387 27.0536 45.2225C27.0187 45.2064 26.9924 45.1836 26.9783 45.1572C26.9771 45.1263 26.9925 45.0959 27.0217 45.0715C27.0509 45.047 27.0922 45.0299 27.1386 45.023ZM27.7339 45.1349C27.7628 45.1328 27.792 45.1347 27.8198 45.1405C27.8475 45.1463 27.873 45.1558 27.8946 45.1685C27.9162 45.1812 27.9335 45.1967 27.9452 45.2141C27.957 45.2314 27.963 45.2502 27.9628 45.2691C27.9487 45.2955 27.9224 45.3183 27.8876 45.3344C27.8527 45.3506 27.811 45.3593 27.7682 45.3593C27.7254 45.3593 27.6837 45.3506 27.6488 45.3344C27.6139 45.3183 27.5877 45.2955 27.5736 45.2691C27.5724 45.2381 27.5877 45.2078 27.6169 45.1834C27.6461 45.1589 27.6875 45.1418 27.7339 45.1349ZM28.2833 45.2468C28.3122 45.2446 28.3415 45.2466 28.3692 45.2523C28.3969 45.2581 28.4224 45.2677 28.4441 45.2804C28.4657 45.2931 28.483 45.3086 28.4947 45.3259C28.5065 45.3433 28.5124 45.362 28.5123 45.381C28.4982 45.4073 28.4719 45.4302 28.437 45.4463C28.4022 45.4625 28.3604 45.4711 28.3177 45.4711C28.2749 45.4711 28.2332 45.4625 28.1983 45.4463C28.1634 45.4302 28.1371 45.4073 28.1231 45.381C28.1219 45.35 28.1372 45.3197 28.1664 45.2952C28.1956 45.2708 28.2369 45.2536 28.2833 45.2468ZM26.841 45.381C26.8699 45.3789 26.8992 45.3808 26.9269 45.3866C26.9546 45.3924 26.9801 45.402 27.0017 45.4146C27.0233 45.4273 27.0406 45.4428 27.0524 45.4602C27.0641 45.4775 27.0701 45.4963 27.0699 45.5153C27.0559 45.5416 27.0296 45.5644 26.9947 45.5806C26.9598 45.5967 26.9181 45.6054 26.8753 45.6054C26.8325 45.6054 26.7908 45.5967 26.7559 45.5806C26.7211 45.5644 26.6948 45.5416 26.6807 45.5153C26.6795 45.4843 26.6948 45.454 26.724 45.4295C26.7533 45.405 26.7946 45.3879 26.841 45.381ZM27.3904 45.4705C27.4194 45.4684 27.4486 45.4703 27.4763 45.4761C27.504 45.4819 27.5295 45.4915 27.5512 45.5041C27.5728 45.5168 27.5901 45.5324 27.6018 45.5497C27.6136 45.567 27.6196 45.5858 27.6194 45.6048C27.6053 45.6311 27.579 45.6539 27.5442 45.6701C27.5093 45.6862 27.4676 45.6949 27.4248 45.6949C27.382 45.6949 27.3403 45.6862 27.3054 45.6701C27.2705 45.6539 27.2442 45.6311 27.2302 45.6048C27.229 45.5738 27.2443 45.5435 27.2735 45.519C27.3027 45.4945 27.344 45.4774 27.3904 45.4705ZM28.581 45.5153C28.6099 45.5132 28.6391 45.5151 28.6669 45.5209C28.6946 45.5267 28.7201 45.5362 28.7417 45.5489C28.7633 45.5616 28.7806 45.5771 28.7923 45.5944C28.8041 45.6118 28.8101 45.6306 28.8099 45.6495C28.7958 45.6758 28.7695 45.6987 28.7347 45.7148C28.6998 45.731 28.6581 45.7396 28.6153 45.7396C28.5725 45.7396 28.5308 45.731 28.4959 45.7148C28.461 45.6987 28.4348 45.6758 28.4207 45.6495C28.4195 45.6185 28.4348 45.5882 28.464 45.5637C28.4932 45.5393 28.5346 45.5221 28.581 45.5153ZM27.9628 45.5153C27.9917 45.5132 28.021 45.5151 28.0487 45.5209C28.0764 45.5267 28.1019 45.5362 28.1235 45.5489C28.1452 45.5616 28.1624 45.5771 28.1742 45.5944C28.1859 45.6118 28.1919 45.6306 28.1917 45.6495C28.1777 45.6758 28.1514 45.6987 28.1165 45.7148C28.0816 45.731 28.0399 45.7396 27.9971 45.7396C27.9544 45.7396 27.9126 45.731 27.8778 45.7148C27.8429 45.6987 27.8166 45.6758 27.8025 45.6495C27.8014 45.6185 27.8167 45.5882 27.8459 45.5637C27.8751 45.5393 27.9164 45.5221 27.9628 45.5153ZM29.1075 45.6495C29.1304 45.6495 29.9546 45.8285 30.9391 46.097L32.7478 46.6117L32.4043 47.2158C32.2125 47.5393 32.0292 47.8676 31.8549 48.2004C31.6259 48.6479 31.5801 48.6479 30.4812 48.4018C29.2907 48.1332 27.4133 47.8871 25.4902 47.7305L23.6586 47.5738L24.3455 47.3277C24.7602 47.1717 25.1653 46.9924 25.5589 46.7907C26.0168 46.5446 26.1999 46.4998 26.9097 46.5669C27.9399 46.6341 28.6267 46.4327 28.9015 46.0299L29.1304 45.6495H29.1075ZM27.0928 45.7838C27.1217 45.7817 27.151 45.7836 27.1787 45.7894C27.2064 45.7952 27.2319 45.8047 27.2535 45.8174C27.2752 45.8301 27.2924 45.8456 27.3042 45.863C27.3159 45.8803 27.3219 45.8991 27.3218 45.918C27.3077 45.9444 27.2814 45.9672 27.2465 45.9833C27.2117 45.9995 27.1699 46.0082 27.1271 46.0082C27.0844 46.0082 27.0426 45.9995 27.0078 45.9833C26.9729 45.9672 26.9466 45.9444 26.9325 45.918C26.9314 45.887 26.9467 45.8567 26.9759 45.8323C27.0051 45.8078 27.0464 45.7907 27.0928 45.7838ZM28.3749 45.7838C28.4038 45.7817 28.4331 45.7836 28.4608 45.7894C28.4885 45.7952 28.514 45.8047 28.5356 45.8174C28.5573 45.8301 28.5745 45.8456 28.5863 45.863C28.598 45.8803 28.604 45.8991 28.6038 45.918C28.5865 45.9399 28.5603 45.9583 28.5279 45.9712C28.4956 45.984 28.4585 45.9908 28.4207 45.9908C28.3829 45.9908 28.3457 45.984 28.3134 45.9712C28.2811 45.9583 28.2549 45.9399 28.2375 45.918C28.2363 45.887 28.2517 45.8567 28.2809 45.8323C28.3101 45.8078 28.3514 45.7907 28.3978 45.7838H28.3749ZM26.5433 45.7838C26.5723 45.7817 26.6015 45.7836 26.6292 45.7894C26.6569 45.7952 26.6825 45.8047 26.7041 45.8174C26.7257 45.8301 26.743 45.8456 26.7547 45.863C26.7665 45.8803 26.7725 45.8991 26.7723 45.918C26.7582 45.9444 26.7319 45.9672 26.6971 45.9833C26.6622 45.9995 26.6205 46.0082 26.5777 46.0082C26.5349 46.0082 26.4932 45.9995 26.4583 45.9833C26.4234 45.9672 26.3971 45.9444 26.3831 45.918C26.3891 45.891 26.4077 45.8657 26.4363 45.8458C26.465 45.8258 26.5023 45.8119 26.5433 45.8061V45.7838ZM27.7567 45.8285C27.8097 45.8242 27.8632 45.8335 27.9059 45.8543C27.9486 45.8752 27.9772 45.9061 27.9857 45.9404C27.9716 45.9667 27.9453 45.9896 27.9105 46.0057C27.8756 46.0219 27.8339 46.0305 27.7911 46.0305C27.7483 46.0305 27.7066 46.0219 27.6717 46.0057C27.6368 45.9896 27.6105 45.9667 27.5965 45.9404C27.6025 45.9133 27.6211 45.8881 27.6498 45.8681C27.6784 45.8481 27.7157 45.8343 27.7567 45.8285ZM26.2457 46.0747C26.2746 46.0726 26.3039 46.0745 26.3316 46.0803C26.3593 46.0861 26.3848 46.0956 26.4064 46.1083C26.4281 46.121 26.4453 46.1365 26.4571 46.1538C26.4689 46.1712 26.4748 46.19 26.4747 46.2089C26.4606 46.2352 26.4343 46.2581 26.3994 46.2742C26.3646 46.2904 26.3228 46.299 26.2801 46.299C26.2373 46.299 26.1955 46.2904 26.1607 46.2742C26.1258 46.2581 26.0995 46.2352 26.0854 46.2089C26.0843 46.1779 26.0996 46.1476 26.1288 46.1231C26.158 46.0987 26.1993 46.0815 26.2457 46.0747ZM26.8181 46.0747C26.8501 46.072 26.8827 46.0743 26.9131 46.0813C26.9436 46.0884 26.9711 46.1 26.9933 46.1152C27.0156 46.1305 27.0321 46.1489 27.0414 46.1691C27.0507 46.1893 27.0527 46.2106 27.047 46.2313C27.033 46.2576 27.0067 46.2804 26.9718 46.2966C26.9369 46.3127 26.8952 46.3214 26.8524 46.3214C26.8096 46.3214 26.7679 46.3127 26.733 46.2966C26.6982 46.2804 26.6719 46.2576 26.6578 46.2313C26.6566 46.2003 26.6719 46.17 26.7012 46.1455C26.7304 46.121 26.7717 46.1039 26.8181 46.097V46.0747ZM27.4133 46.1194C27.4663 46.1151 27.5198 46.1244 27.5625 46.1452C27.6052 46.1661 27.6338 46.197 27.6423 46.2313C27.6282 46.2576 27.6019 46.2804 27.5671 46.2966C27.5322 46.3127 27.4905 46.3214 27.4477 46.3214C27.4049 46.3214 27.3632 46.3127 27.3283 46.2966C27.2934 46.2804 27.2671 46.2576 27.2531 46.2313C27.2591 46.2042 27.2777 46.179 27.3063 46.159C27.335 46.139 27.3723 46.1252 27.4133 46.1194ZM28.0544 46.1194C28.0833 46.1173 28.1126 46.1192 28.1403 46.125C28.168 46.1308 28.1935 46.1404 28.2151 46.153C28.2367 46.1657 28.254 46.1813 28.2658 46.1986C28.2775 46.2159 28.2835 46.2347 28.2833 46.2537C28.2693 46.28 28.243 46.3028 28.2081 46.319C28.1732 46.3351 28.1315 46.3438 28.0887 46.3438C28.0459 46.3438 28.0042 46.3351 27.9693 46.319C27.9345 46.3028 27.9082 46.28 27.8941 46.2537C27.8929 46.2227 27.9082 46.1924 27.9375 46.1679C27.9667 46.1434 28.008 46.1263 28.0544 46.1194ZM23.4068 47.9319C26.1094 48.0019 28.7996 48.3165 31.4428 48.8716C31.4657 48.894 31.3054 49.431 31.0536 50.0799L30.5957 51.4225C30.5728 51.5344 30.4125 51.5344 30.0233 51.4896C28.1231 51.1987 22.6284 51.2211 20.5221 51.5344C19.3087 51.7134 19.1484 51.691 19.24 51.4449L19.4689 50.6617L19.6063 50.0576L20.8426 49.431C21.6667 49.0201 22.4486 48.5331 23.1778 47.9766H23.3839L23.4068 47.9319ZM17.2253 51.1092C17.2939 51.1092 17.4313 51.1764 17.5916 51.2882C17.8205 51.4225 18.0953 51.5344 18.2097 51.5344C18.805 51.5344 19.1255 52.3623 19.6292 55.1145L19.8123 56.0991C19.8581 56.3228 19.8123 56.3676 19.2858 56.4795C18.6447 56.6137 18.4845 56.6361 18.4845 56.5466C18.4845 56.3228 17.8434 53.4811 17.5687 52.4742C17.4319 52.0306 17.3098 51.5828 17.2024 51.1316C17.2059 51.1297 17.2098 51.1286 17.2138 51.1286C17.2178 51.1286 17.2218 51.1297 17.2253 51.1316V51.1092ZM23.7731 51.5568H24.437L24.2081 51.7805C23.8189 52.228 23.6357 52.2504 23.361 51.9595C23.2645 51.8621 23.1869 51.7484 23.1321 51.6239C23.1321 51.5791 23.4297 51.5344 23.7731 51.5344V51.5568ZM25.1697 51.5568H26.406L26.1312 51.8253C25.8107 52.1833 25.7878 52.1833 25.4444 51.8253L25.1697 51.5344V51.5568ZM27.047 51.5568H27.3446C27.5049 51.5568 27.8025 51.5568 27.9857 51.6015L28.3291 51.6686L28.0086 51.9595C27.8254 52.1162 27.6652 52.2504 27.6423 52.228L27.3218 51.87L27.047 51.5344V51.5568ZM28.9931 51.6239L29.2678 51.691C29.4281 51.7358 29.7715 51.7581 30.0233 51.7805H30.4812L30.1378 52.0714C30.0134 52.1848 29.8749 52.2825 29.7257 52.3623C29.7028 52.3623 29.4967 52.1833 29.3365 51.9819L28.9931 51.6239ZM22.0789 51.6463H22.1247C22.1476 51.691 22.056 51.87 21.8957 52.0267L21.6668 52.3399L21.3234 52.0714L20.98 51.7805L21.5294 51.7134L22.0789 51.6463ZM22.6055 51.691L22.9718 52.0043L23.3381 52.3399L22.6513 52.3847L21.9644 52.407L22.285 52.0714L22.6055 51.691ZM26.7265 51.691C26.7952 51.691 26.841 51.7134 26.9097 51.7581C27.0294 51.8683 27.1299 51.9968 27.2073 52.1385C27.2989 52.3175 27.276 52.3623 26.9783 52.3623L26.406 52.2504L26.1312 52.1833L26.4289 51.8924C26.5662 51.7581 26.6578 51.6686 26.7494 51.6686L26.7265 51.691ZM24.8262 51.691C24.9407 51.691 25.0552 51.7581 25.1926 51.9819C25.3528 52.228 25.3528 52.228 24.7347 52.228H24.1165L24.437 51.9371C24.5973 51.7805 24.7347 51.7134 24.8262 51.7134V51.691ZM28.7183 51.7358L28.9931 52.0043C29.3136 52.2952 29.3594 52.4742 29.1304 52.4518L28.4894 52.3847L27.9857 52.3399L28.352 52.049L28.7183 51.7358ZM20.6594 51.8924C20.7052 51.8924 20.8884 52.0043 21.0258 52.1609L21.3005 52.4518L20.7281 52.5413L19.9268 52.6532C19.7666 52.6979 19.8123 52.5861 20.1558 52.2952C20.3847 52.0714 20.6137 51.8924 20.6594 51.8924ZM19.8123 51.8924H19.9039C20.0871 51.9371 20.0871 51.9819 19.7666 52.2952L19.4231 52.6308L19.3087 52.3399C19.2171 52.1162 19.24 52.049 19.446 51.9595C19.5633 51.9169 19.6872 51.8942 19.8123 51.8924ZM30.3438 52.2952C30.3896 52.2952 30.3896 52.3399 30.3438 52.4294C30.298 52.6084 30.092 52.6532 30.092 52.4742C30.092 52.4294 30.1607 52.3623 30.2523 52.3175H30.3209L30.3438 52.2952ZM25.4444 52.6532C27.2073 52.6532 28.9931 52.6979 29.4281 52.7427C30.1378 52.8322 30.2065 52.8546 30.2065 53.1231C30.2065 53.4363 30.1149 53.4587 29.1533 53.3021C28.8786 53.235 27.711 53.1454 26.5891 53.0559C24.4118 52.9273 22.2269 53.0022 20.0642 53.2797C19.6292 53.3245 19.5147 53.2797 19.5147 53.1455C19.5147 52.8546 21.85 52.6532 25.4444 52.6532ZM23.0863 53.3021H24.3226L24.0478 53.593C23.7044 53.951 23.6815 53.951 23.361 53.593L23.0863 53.3021ZM24.6889 53.3021L25.0094 53.6153L25.3299 53.9734L24.666 53.9957H24.002L24.3455 53.6377L24.666 53.3021H24.6889ZM25.1697 53.3021H26.406L26.1312 53.593C25.8107 53.951 25.7878 53.951 25.4444 53.593L25.1697 53.3021ZM22.2392 53.3021C22.285 53.3021 22.2392 53.414 22.0789 53.6377C21.9186 53.8391 21.7584 53.9957 21.7355 53.9957C21.6897 53.9957 21.5294 53.8615 21.3921 53.7048L21.1173 53.414H21.5294C21.7389 53.415 21.9474 53.3848 22.1476 53.3245C22.1778 53.3184 22.209 53.3184 22.2392 53.3245V53.3021ZM22.6971 53.414L22.9947 53.6825L23.3381 53.9734L22.7428 54.0181L22.0789 54.0629L22.3994 53.7272L22.6971 53.414ZM26.6807 53.414L27.0012 53.772C27.3675 54.1524 27.3446 54.1747 26.5204 54.0181L26.1312 53.951L26.406 53.6825L26.6807 53.414ZM27.1386 53.414H27.6881C28.2833 53.414 28.352 53.5035 28.0086 53.8167C27.7339 54.0405 27.7339 54.0405 27.4133 53.7048L27.1386 53.414ZM20.1329 53.5258C20.4076 53.5258 20.3847 53.5482 20.0413 53.8839C19.7895 54.13 19.7666 54.13 19.675 53.951C19.6063 53.7272 19.8123 53.5482 20.1329 53.5258ZM29.0159 53.5706C29.1075 53.5706 29.2907 53.5706 29.4738 53.6153L30.0004 53.7048L29.7028 53.9734L29.4281 54.2419L29.1762 53.9286L28.9473 53.5706H29.0159ZM20.7739 53.6825C20.8426 53.6825 20.9113 53.7272 21.0258 53.8391C21.2547 54.0629 21.2547 54.0629 21.0715 54.1524C20.8941 54.2094 20.7088 54.2396 20.5221 54.2419H20.1558L20.4534 53.9286C20.6137 53.772 20.6823 53.7048 20.751 53.6825H20.7739ZM28.581 53.7496C28.6725 53.7496 28.7412 53.7944 28.8557 53.9734L29.0617 54.2419H28.581C28.2604 54.2419 28.1231 54.1971 28.1231 54.1076C28.1689 54.0181 28.2833 53.8839 28.4207 53.8167L28.581 53.7496ZM30.0462 54.0405C30.092 54.0405 30.092 54.0852 30.092 54.1524C30.092 54.3761 29.8859 54.5328 29.7944 54.3761C29.7715 54.309 29.8173 54.1971 29.9088 54.13L30.0462 54.0405ZM24.1165 54.309C26.1083 54.309 28.3062 54.4433 29.6112 54.667L29.9775 54.7341V55.7187C29.9775 56.4571 29.9317 56.7032 29.8173 56.7032L28.6725 56.4795C26.0252 56.0407 23.3281 55.9654 20.6594 56.2557L20.1329 56.3228L19.9955 55.4949C19.9386 55.2148 19.908 54.9302 19.9039 54.6446C19.9039 54.6446 20.4305 54.5328 21.0487 54.4656C21.8042 54.3537 22.926 54.309 24.1165 54.309Z" fill="black"/>
<path d="M28.1232 48.7151C27.4364 48.7151 26.9556 49.185 26.9556 49.8786C26.9556 50.9527 28.1919 51.4897 28.9245 50.7289C29.6571 49.9681 29.1534 48.7151 28.1232 48.7151ZM28.1232 48.9836C28.2435 48.9836 28.3625 49.0068 28.4736 49.0517C28.5848 49.0967 28.6857 49.1626 28.7707 49.2457C28.8558 49.3289 28.9232 49.4275 28.9693 49.5361C29.0153 49.6447 29.039 49.7611 29.039 49.8786C29.039 50.5499 28.2835 50.9974 27.6653 50.7065C27.0471 50.3709 27.0929 49.3416 27.7569 49.0731C27.8648 49.0231 27.9812 48.9928 28.1003 48.9836H28.1232Z" fill="black"/>
<path d="M23.5214 48.5808C22.8345 48.5808 22.3538 49.0507 22.3538 49.7444C22.3538 50.8184 23.5901 51.3554 24.3227 50.5946C25.0553 49.8339 24.5516 48.5808 23.5214 48.5808ZM23.5214 48.8493C23.6416 48.8493 23.7607 48.8725 23.8718 48.9175C23.9829 48.9624 24.0839 49.0284 24.1689 49.1115C24.254 49.1946 24.3214 49.2933 24.3675 49.4018C24.4135 49.5104 24.4372 49.6268 24.4372 49.7444C24.4372 50.4156 23.6816 50.8632 23.0635 50.5723C22.4453 50.2366 22.4911 49.2073 23.1551 48.9388C23.263 48.8889 23.3794 48.8585 23.4985 48.8493H23.5214Z" fill="black"/>
<path d="M19.6979 32.4924C19.6023 32.498 19.5121 32.54 19.4445 32.6102C19.3769 32.6803 19.3367 32.7738 19.3315 32.8727C19.3315 32.9827 19.3738 33.0882 19.4489 33.1659C19.524 33.2437 19.6259 33.2874 19.7322 33.2874C19.8385 33.2874 19.9404 33.2437 20.0155 33.1659C20.0906 33.0882 20.1329 32.9827 20.1329 32.8727C20.1303 32.8175 20.1167 32.7634 20.0931 32.7139C20.0694 32.6643 20.0361 32.6203 19.9953 32.5846C19.9545 32.5489 19.907 32.5223 19.8559 32.5065C19.8047 32.4906 19.7509 32.4858 19.6979 32.4924ZM19.7207 32.6266C19.7936 32.6266 19.8635 32.6525 19.915 32.6987C19.9665 32.7449 19.9955 32.8075 19.9955 32.8727C19.9955 32.938 19.9665 33.0006 19.915 33.0468C19.8635 33.0929 19.7936 33.1189 19.7207 33.1189C19.6479 33.1189 19.578 33.0929 19.5265 33.0468C19.475 33.0006 19.446 32.938 19.446 32.8727C19.446 32.8404 19.4531 32.8084 19.4669 32.7786C19.4807 32.7487 19.501 32.7216 19.5265 32.6987C19.552 32.6758 19.5823 32.6577 19.6156 32.6453C19.6489 32.633 19.6847 32.6266 19.7207 32.6266Z" fill="black"/>
</g>
</g>
<defs>
<clipPath id="clip0_51_11">
<rect width="94" height="94" fill="white"/>
</clipPath>
</defs>
</svg>
