<svg width="208" height="208" viewBox="0 0 208 208" fill="none" xmlns="http://www.w3.org/2000/svg">
<path d="M205.189 108.572C205.069 108.522 205.019 108.292 204.889 108.062C205.159 107.912 205.369 107.732 205.609 107.682C206.889 107.422 207.309 106.702 207.259 105.392C207.149 102.702 207.219 100.002 207.189 97.3021C207.189 96.6921 207.049 96.0921 206.969 95.4821L206.589 95.8221C205.889 95.3421 205.199 94.8521 204.499 94.3721C204.949 93.8621 205.319 93.2221 205.869 92.8621C206.699 92.3221 206.699 91.6621 206.239 91.0421C205.509 90.0721 205.459 89.0921 205.799 87.9921C205.909 87.6221 205.899 87.1821 205.819 86.7921C205.209 83.6321 204.609 80.4621 203.889 77.3321C203.739 76.6621 203.699 75.7021 202.499 75.6421C201.439 75.5921 200.339 75.4021 199.369 75.0121C197.349 74.1821 195.829 72.7421 194.749 70.7621C196.169 70.1321 197.289 70.2021 198.349 71.2021C199.459 72.2321 200.769 72.3321 202.339 71.8221C201.019 68.5021 199.809 65.3221 198.499 62.1921C194.219 52.0021 188.199 42.8821 180.899 34.6321C176.309 29.4521 171.189 24.8021 165.629 20.6521C158.979 15.6821 151.859 11.5321 144.189 8.38215C140.589 6.90215 136.909 5.56215 133.179 4.45215C129.289 3.29215 125.309 2.37215 121.329 1.57215C118.569 1.02215 115.749 0.772146 112.939 0.532146C109.589 0.262146 106.229 -0.0278542 102.869 0.00214577C99.3394 0.0421458 95.7994 0.402146 92.2694 0.712146C89.9594 0.922146 87.6094 1.09215 85.3594 1.62215C80.3994 2.80215 75.4594 4.10215 70.5694 5.54215C67.9094 6.32215 65.3694 7.49215 62.7694 8.46215C62.1094 8.70215 62.0294 9.07215 62.1994 9.71215C62.7194 11.5921 62.4894 12.1321 60.8494 13.3221C59.4894 14.3121 56.1794 13.4921 55.4894 11.9721C48.9394 15.2221 42.9994 19.3821 37.3094 23.9321C36.5394 24.5421 36.2294 25.2321 36.2394 26.2321C36.2794 28.9021 34.4594 29.7321 32.3594 29.6121C31.3294 29.5521 30.8194 29.8121 30.2194 30.4321C24.4094 36.3821 19.0894 42.7421 14.9794 49.9921C12.5294 54.3121 10.1494 58.7121 8.24937 63.2821C6.15937 68.3121 4.61937 73.5721 2.91937 78.7621C2.46937 80.1421 2.12937 81.5621 3.61937 82.7721C4.87937 83.7921 5.89937 85.1121 7.04937 86.3121C6.21937 87.5021 4.63937 87.6721 3.39937 86.6921C3.16937 86.5121 2.38937 86.5521 2.29937 86.7221C1.76937 87.6921 1.10937 88.7021 0.959373 89.7721C0.539373 92.8721 0.179373 96.0021 0.0993726 99.1321C-0.0506274 105.012 -0.170627 110.902 0.839373 116.742C1.31937 119.522 1.45937 122.372 2.13937 125.092C3.28937 129.732 4.48937 134.392 6.13937 138.872C7.91937 143.692 9.92937 148.482 12.3994 152.972C15.0094 157.712 18.2694 162.092 21.2494 166.622C21.7394 167.372 22.2394 168.112 22.5494 168.572C23.1194 168.672 23.5794 168.642 23.8994 168.842C24.4194 169.172 24.8394 169.662 25.3294 170.062C25.8594 170.492 26.5794 170.812 25.6994 171.602C25.5994 171.692 25.7394 172.212 25.9094 172.382C30.0094 176.332 34.1194 180.272 38.2594 184.182C38.5294 184.442 39.1094 184.502 39.5294 184.462C40.6594 184.342 41.7694 184.052 42.9094 183.942C44.2094 183.812 44.3894 184.862 44.5994 185.782C44.8194 186.752 43.9894 186.822 43.4094 187.102C43.1894 187.212 42.9894 187.342 42.6894 187.512C42.9794 187.772 43.1494 187.982 43.3594 188.122C49.3594 192.252 55.6094 195.942 62.3294 198.772C63.2894 199.182 63.8894 199.422 64.3094 199.432L64.2794 199.692C64.2794 199.692 85.0694 206.942 105.039 207.282C105.259 207.502 105.619 207.562 106.149 207.502C108.159 207.292 110.179 207.212 112.189 206.992C115.399 206.642 118.649 206.452 121.779 205.772C126.749 204.682 131.679 203.342 136.559 201.922C142.089 200.312 147.299 197.862 152.369 195.162C158.239 192.042 163.749 188.342 168.929 184.152C174.569 179.592 179.669 174.502 184.239 168.882C189.009 163.012 193.129 156.692 196.369 149.852C198.379 145.622 200.149 141.272 202.019 136.982C201.909 136.922 201.799 136.862 201.689 136.802C201.249 137.082 200.829 137.402 200.359 137.632C200.109 137.752 199.569 137.792 199.529 137.712C199.179 136.882 198.459 135.852 198.699 135.192C199.409 133.262 199.179 131.542 198.449 129.722C197.479 127.312 197.719 126.562 199.739 124.852C201.139 123.672 202.419 123.962 203.129 125.672C203.509 126.602 203.809 127.562 204.189 128.602C204.469 127.352 204.759 126.232 204.969 125.092C205.469 122.412 206.089 119.742 206.329 117.032C206.449 115.622 205.489 114.342 206.609 112.702C207.519 111.362 207.229 109.422 205.189 108.572ZM5.08937 96.2021C4.44937 95.3021 3.90937 94.8121 3.76937 94.2321C3.70937 93.9821 4.46937 93.5321 4.85937 93.1821C5.25937 93.6221 5.84937 94.0121 5.99937 94.5221C6.09937 94.8621 5.55937 95.3821 5.08937 96.2121V96.2021ZM9.29937 108.202C8.62937 106.512 7.92937 104.822 7.24937 103.142C7.37937 103.012 7.50937 102.882 7.63937 102.752C8.18937 103.192 8.76937 103.612 9.29937 104.082C10.1994 104.882 11.0594 105.702 11.9494 106.512C12.0994 106.652 12.3494 106.892 12.4594 106.852C13.8594 106.342 13.6794 107.552 13.7994 108.182C13.9694 109.042 13.6594 109.692 12.6194 109.942C10.2394 110.492 10.2194 110.512 9.29937 108.202ZM13.1594 119.002C12.9694 119.022 12.7794 119.042 12.5894 119.062C12.4894 118.512 12.3994 117.962 12.2994 117.412C12.7894 117.362 13.5094 117.072 13.7294 117.292C14.5794 118.142 13.6394 118.532 13.1594 119.012V119.002ZM21.8794 51.3121C21.6294 51.0421 21.1294 50.6421 21.1894 50.5121C21.4794 49.8821 21.9294 49.3221 22.5294 48.4321C22.8594 49.0521 23.1894 49.4221 23.1094 49.5621C22.7694 50.1821 22.2994 50.7321 21.8894 51.3021L21.8794 51.3121ZM176.079 53.5821C177.649 54.0121 178.669 55.0921 178.799 56.2521C178.929 57.3721 178.439 57.9421 177.339 58.0721C176.199 58.2121 176.099 57.4421 176.079 56.6421C176.059 55.6721 176.079 54.6921 176.079 53.5921V53.5821ZM177.199 68.0821C177.769 68.8221 178.459 69.4821 178.369 69.6221C177.879 70.3621 177.189 70.9721 176.569 71.6221C176.189 71.2521 175.419 70.6921 175.499 70.5421C175.879 69.7621 176.479 69.0821 177.199 68.0821ZM168.329 31.9521C168.729 31.9521 169.129 32.3821 169.529 32.6321C169.079 32.9621 168.629 33.2921 167.999 33.7521C167.619 33.2621 167.399 32.9721 167.179 32.6821C167.559 32.4221 167.949 31.9621 168.329 31.9621V31.9521ZM151.659 24.7821C152.109 24.4321 152.779 24.3421 153.389 24.1221C153.919 24.3521 154.379 24.5421 154.839 24.7421C154.579 25.1321 154.349 25.5421 154.049 25.9121C153.799 26.2221 153.489 26.5021 153.169 26.7421C152.629 27.1621 152.139 27.7621 151.409 26.8621C150.709 26.0021 150.959 25.3221 151.649 24.7921L151.659 24.7821ZM139.179 75.8921C138.819 75.9521 138.309 75.2321 137.869 74.8621C138.419 74.3221 138.889 73.5821 139.549 73.3121C139.869 73.1821 140.539 73.9521 141.429 74.5821C140.449 75.1921 139.849 75.7721 139.169 75.8921H139.179ZM139.459 64.8721C139.669 63.9421 139.979 63.0421 140.339 61.8821C141.649 63.3421 141.709 64.7021 140.729 65.5021C140.489 65.6921 140.039 65.8321 139.779 65.7321C139.579 65.6521 139.399 65.1421 139.459 64.8721ZM100.479 25.2121C100.979 23.9721 102.209 23.8921 103.749 23.5321C103.269 25.2421 102.859 26.6621 102.449 28.1221C101.269 27.5421 100.179 25.9621 100.479 25.2121ZM100.899 32.2621C100.969 32.0421 101.169 31.7421 101.349 31.7121C101.529 31.6821 101.829 31.9121 101.929 32.1121C102.209 32.6521 102.409 33.2421 102.629 33.7721C102.209 35.0921 101.889 36.3421 101.399 37.5321C101.269 37.8321 100.509 38.1621 100.229 38.0321C99.8894 37.8821 99.4994 37.2121 99.5694 36.8621C99.9194 35.3021 100.419 33.7821 100.889 32.2621H100.899ZM74.5094 83.4721C75.1394 83.2121 75.8194 82.9621 76.4894 82.9321C76.7494 82.9221 77.1794 83.4821 77.2694 83.8421C77.4294 84.5121 77.3794 85.2321 77.4194 85.9321C77.3194 86.0521 77.2194 86.1721 77.1194 86.3021C76.2394 85.6421 75.3294 85.0021 74.4894 84.2821C74.3494 84.1621 74.3994 83.5221 74.5094 83.4721ZM90.4994 12.9021C91.0894 12.6221 91.9894 12.9821 92.7494 13.0721C92.7094 13.3921 92.7594 13.9121 92.5994 13.9921C91.7394 14.4221 90.8194 14.7421 89.9294 15.1021C89.7694 14.9821 89.5994 14.8621 89.4394 14.7421C89.7794 14.1021 89.9794 13.1521 90.4994 12.9021ZM75.3394 16.2321C75.9994 15.7221 76.8994 15.5421 77.7094 15.2221C77.8494 15.4421 77.9894 15.6621 78.1194 15.8721C77.3694 16.7021 76.6394 17.5521 75.8494 18.3421C75.7794 18.4121 75.0594 18.0621 75.0494 17.9021C75.0294 17.3321 74.9994 16.4921 75.3394 16.2321ZM51.3294 103.702C51.5694 103.222 52.7594 103.202 53.6094 102.942C54.1294 103.152 55.0294 103.332 55.0494 103.572C55.0994 104.202 54.9694 105.112 54.5394 105.462C53.5594 106.262 52.3694 106.822 51.2394 107.432C51.1194 107.502 50.6294 107.212 50.6394 107.142C50.8094 105.972 50.8294 104.712 51.3394 103.702H51.3294ZM40.4794 27.2821C41.1394 26.7421 41.9594 26.3921 42.6994 25.9521C42.8194 26.0721 42.9394 26.1921 43.0694 26.3021C42.6394 27.5621 42.2294 28.8221 41.7594 30.0621C41.6994 30.2121 41.2794 30.3621 41.1094 30.3021C40.2394 29.9921 39.7594 27.8621 40.4794 27.2821ZM24.9394 57.4321C24.7694 57.3921 24.5094 56.7021 24.6194 56.5421C25.4894 55.3121 26.4394 54.1521 27.5294 52.7621C28.3494 53.9321 29.0494 54.8021 29.6194 55.7521C30.0694 56.5121 29.1494 57.7721 27.9694 57.8321C26.9594 57.8821 25.9294 57.6521 24.9394 57.4321ZM26.1394 128.372C25.8794 127.842 25.5994 127.472 25.6794 127.392C26.1494 126.812 26.6894 126.282 27.2394 125.772C27.2594 125.752 27.7394 126.172 27.7294 126.202C27.2794 126.862 26.7994 127.502 26.1494 128.382L26.1394 128.372ZM30.6094 85.7821C30.3394 85.4021 30.0694 85.0121 29.6594 84.4321C30.0694 84.0221 30.4794 83.4421 30.6394 83.5021C31.0794 83.6721 31.4194 84.1121 31.7994 84.4421C31.3994 84.8921 31.0094 85.3321 30.6094 85.7821ZM28.2394 63.3821C28.0594 62.7121 27.7994 62.0421 27.7194 61.3521C27.6894 61.0421 27.9294 60.4821 28.1794 60.4021C30.1194 59.7521 32.0894 59.1821 34.0594 58.6021C34.1494 58.5721 34.2894 58.7021 34.3994 58.7521C34.5294 60.6821 31.2194 62.7721 28.2294 63.3821H28.2394ZM38.7594 178.422C38.4494 179.202 37.9894 179.302 37.5494 178.532C36.8294 177.292 36.1394 176.022 35.4694 174.752C35.0594 173.962 35.3394 173.512 36.1894 173.262C38.7294 172.542 39.5494 173.102 39.7394 175.672C39.4194 176.592 39.1194 177.512 38.7594 178.412V178.422ZM37.7594 132.122C38.3794 131.032 38.8894 130.112 39.4594 129.212C39.4694 129.192 40.1694 129.432 40.2594 129.652C40.7194 130.902 39.7694 131.942 37.7694 132.112L37.7594 132.122ZM49.7594 132.202C49.1394 131.012 49.2094 129.772 49.9394 128.612C50.2094 128.182 50.5094 127.752 50.8194 127.312L53.4494 128.632C53.5094 130.782 52.9194 131.782 50.8994 132.642C50.6194 132.762 49.9094 132.482 49.7594 132.192V132.202ZM59.7794 176.632C59.6594 176.982 58.4594 177.062 57.7494 177.092C56.2094 177.152 54.6594 177.092 53.1094 177.072C52.4594 177.072 51.8194 177.072 51.1694 177.072C51.5394 175.412 51.7594 174.072 52.1494 172.782C52.3294 172.172 52.7494 171.562 53.2294 171.152C53.5794 170.862 54.2694 170.742 54.6994 170.882C54.9694 170.962 55.0794 171.662 55.1894 172.102C55.2794 172.482 55.1494 172.972 55.3394 173.282C55.5994 173.702 56.0194 174.192 56.4494 174.282C56.7594 174.352 57.3094 173.902 57.5594 173.552C58.5394 172.142 58.5894 172.132 59.3694 173.642C59.4494 173.802 59.6194 173.942 59.6394 174.102C59.7394 174.962 60.0294 175.902 59.7694 176.642L59.7794 176.632ZM60.7294 133.492C60.1494 133.882 59.5094 134.262 58.8494 134.462C58.4694 134.582 57.6294 134.402 57.5994 134.252C57.4694 133.532 57.0894 132.592 58.2294 132.272C58.6494 132.152 59.1094 132.202 59.5494 132.172C59.5494 132.172 59.5494 132.182 59.5494 132.192C59.8194 132.172 60.0994 132.082 60.3394 132.152C60.4494 132.182 60.5694 132.232 60.6894 132.282L60.8694 132.372C61.0094 132.452 61.1194 132.542 61.1494 132.642C61.2094 132.872 60.9694 133.322 60.7294 133.492ZM119.459 200.232C119.269 200.232 118.879 199.722 118.919 199.512C118.979 199.212 119.349 198.972 119.589 198.702C119.859 198.952 120.119 199.192 120.559 199.592C120.069 199.902 119.769 200.222 119.469 200.232H119.459ZM128.249 146.822C127.669 146.482 127.159 146.022 126.619 145.612C126.839 145.402 127.139 144.972 127.269 145.022C127.879 145.242 128.439 145.592 129.319 146.062C128.729 146.492 128.359 146.892 128.249 146.832V146.822ZM142.439 196.972C141.969 197.932 141.189 198.802 140.369 199.522C139.829 200.002 139.279 199.262 139.379 198.062C139.419 197.532 139.469 196.992 139.499 196.462C139.549 195.662 139.389 194.742 140.709 194.902C141.879 195.052 142.869 196.062 142.429 196.962L142.439 196.972ZM143.569 131.352C142.989 131.092 142.479 130.642 141.999 130.202C141.969 130.172 142.359 129.662 142.689 129.192C143.409 129.772 143.939 130.212 144.479 130.642C144.169 130.892 143.729 131.422 143.569 131.352ZM148.069 112.842C147.989 112.892 147.209 112.002 147.259 111.952C147.839 111.222 148.479 110.532 149.189 109.952C149.269 109.882 149.919 110.522 150.599 111.062C149.599 111.792 148.869 112.372 148.069 112.842ZM162.589 173.832C161.959 175.882 160.129 176.122 158.469 176.622L157.949 176.272C158.329 175.552 158.579 174.702 159.129 174.132C159.729 173.512 160.559 173.092 161.349 172.682C161.689 172.502 162.159 172.592 162.579 172.552C162.579 172.982 162.699 173.442 162.579 173.832H162.589ZM167.369 153.532C167.099 154.192 166.749 154.822 166.379 155.432C165.479 156.922 163.319 157.502 161.809 156.632C161.549 156.482 161.289 155.962 161.339 155.682C161.829 153.112 162.379 150.552 162.919 147.992C163.099 147.952 163.279 147.912 163.469 147.872C164.769 149.422 166.099 150.962 167.359 152.552C167.529 152.762 167.489 153.252 167.369 153.542V153.532ZM166.869 75.5321C166.609 75.5121 166.379 75.0421 166.129 74.7721C166.369 74.5721 166.609 74.2321 166.849 74.2221C167.169 74.2221 167.479 74.4921 168.059 74.7721C167.479 75.1621 167.159 75.5521 166.869 75.5321ZM169.439 40.4821C169.439 40.4821 168.809 39.8621 168.829 39.8321C169.359 39.2221 169.929 38.6321 170.539 38.1121C170.589 38.0721 171.019 38.4721 171.519 38.8621C170.709 39.5121 170.089 40.0221 169.439 40.4821ZM174.869 112.032C173.849 111.402 173.089 110.962 172.379 110.442C172.269 110.362 172.299 109.872 172.429 109.742C172.609 109.552 173.049 109.352 173.209 109.442C173.889 109.842 174.539 110.312 175.109 110.862C175.239 110.982 174.979 111.512 174.869 112.032ZM176.079 74.9021C175.889 75.3321 175.319 75.6621 174.839 75.8521C174.699 75.9121 174.039 75.2521 174.089 75.0621C174.239 74.5721 174.649 74.1621 175.109 73.5021C175.569 74.1321 176.189 74.6721 176.079 74.9021ZM176.499 107.612C176.309 107.542 176.079 107.062 176.149 106.872C176.269 106.542 176.549 106.162 176.849 106.032C178.219 105.472 179.399 106.362 179.979 108.622C178.669 108.252 177.569 107.972 176.499 107.612ZM187.679 59.5221C187.139 60.0521 186.569 60.5721 185.929 60.9521C185.719 61.0721 185.049 60.8621 184.929 60.6321C184.439 59.6421 184.019 58.6021 183.719 57.5421C183.629 57.2121 183.999 56.7421 184.249 56.1321C185.669 57.1421 186.799 57.9221 187.889 58.7521C187.979 58.8221 187.849 59.3521 187.679 59.5121V59.5221ZM194.649 65.8221C193.799 66.2021 192.959 66.5921 192.099 66.9321C192.079 66.9321 191.739 66.2321 191.769 66.2221C192.539 65.7721 193.319 65.3521 194.129 64.9821C194.269 64.9221 194.529 65.1321 194.729 65.2121C194.699 65.4121 194.679 65.6121 194.649 65.8221Z" fill="#D21830"/>
<path d="M108.839 26.4622C111.059 27.0122 112.849 27.4522 114.819 27.9322C116.069 29.7822 116.209 31.8822 116.209 34.3022C116.209 38.5622 116.019 42.8422 117.429 47.1222C119.959 54.7922 119.369 63.1422 122.019 70.8522C120.399 73.1322 124.359 74.7022 122.809 76.9722C124.039 78.8122 122.789 80.7522 123.009 82.6622C123.279 85.0622 123.329 87.5422 123.009 89.9322C122.349 94.9422 121.459 99.9222 120.509 104.882C119.599 109.662 115.989 116.682 111.859 121.482C110.289 123.312 108.599 125.032 107.109 126.922C105.629 128.802 104.329 130.832 102.999 132.742C99.0192 132.712 97.5892 129.492 95.6692 127.072C93.1992 123.962 91.7192 120.202 88.9292 117.182C87.4992 115.632 87.0492 112.602 87.2092 110.312C87.4092 107.482 86.5092 104.742 86.8892 102.032C87.2492 99.3822 86.7692 96.8222 86.7792 94.2222C86.7792 93.7022 86.6892 93.1422 86.8292 92.6622C89.3992 84.0522 89.4292 74.9622 92.0092 66.3222C93.0492 62.8522 94.1892 59.4122 95.8692 56.3222C98.0892 52.2422 99.9192 48.1222 101.249 43.6722C102.489 39.5522 104.429 35.6722 105.449 31.4222C105.899 29.5722 107.709 28.0522 108.839 26.4722V26.4622Z" fill="white"/>
<path d="M88.5293 144.672C90.5493 144.312 92.4693 143.922 94.3993 143.642C95.6093 143.472 97.1193 142.972 98.0293 143.472C102.979 146.212 108.949 147.612 111.559 153.592C112.509 155.762 113.979 157.692 114.789 159.032C116.579 169.842 112.559 177.802 105.239 184.622C100.209 183.382 95.0393 182.272 89.9693 180.832C82.0093 178.562 78.5693 176.502 78.3093 168.602C78.2893 168.142 77.7893 167.692 77.5293 167.262C78.6993 158.742 82.3193 151.372 88.5293 144.672Z" fill="white"/>
</svg>
