<svg width="94" height="94" viewBox="0 0 94 94" fill="none" xmlns="http://www.w3.org/2000/svg">
<g clip-path="url(#clip0_51_45)">
<mask id="mask0_51_45" style="mask-type:luminance" maskUnits="userSpaceOnUse" x="0" y="0" width="126" height="94">
<path d="M0 0H125.339V94H0V0Z" fill="white"/>
</mask>
<g mask="url(#mask0_51_45)">
<path fill-rule="evenodd" clip-rule="evenodd" d="M0 0H141V29.375H0V0Z" fill="#009A00"/>
<path fill-rule="evenodd" clip-rule="evenodd" d="M0 29.3752H141V32.3127H0V29.3752Z" fill="white"/>
<path fill-rule="evenodd" clip-rule="evenodd" d="M0 32.3125H141V61.6875H0V32.3125Z" fill="black"/>
<path fill-rule="evenodd" clip-rule="evenodd" d="M0 61.6875H141V64.625H0V61.6875Z" fill="white"/>
<path fill-rule="evenodd" clip-rule="evenodd" d="M0 64.625H141V94H0V64.625Z" fill="#FFCA00"/>
<path fill-rule="evenodd" clip-rule="evenodd" d="M0 0V94L61.6875 47L0 0Z" fill="#FF0000"/>
<path fill-rule="evenodd" clip-rule="evenodd" d="M36.4434 61.1368L27.0434 54.252L17.6434 61.1368L21.2969 50.0661L11.8418 43.2547L23.5 43.2915L27.0434 32.2024L30.6051 43.3098L42.2633 43.2547L32.8082 50.0661L36.4434 61.1368Z" fill="#FFCA00"/>
<path fill-rule="evenodd" clip-rule="evenodd" d="M18.8733 53.4074H25.6663C26.217 54.0133 27.4104 54.2703 28.567 53.4074C30.6967 52.2324 34.8092 53.4074 34.8092 53.4074L35.617 52.5445L33.6526 46.082L32.9366 45.3109C32.9366 45.3109 31.4127 44.393 28.5303 44.7051C25.6479 45.0172 24.6381 44.6133 24.6381 44.6133C24.6381 44.6133 22.1229 44.907 21.4069 45.2742L20.5991 46.082L18.8733 53.4074Z" fill="white" stroke="black" stroke-width="1.03125" stroke-linecap="round" stroke-linejoin="round"/>
<path d="M20.2502 51.7367C20.2502 51.7367 26.7127 50.9289 28.5854 53.4074C27.5389 54.1418 26.6026 54.1969 25.6112 53.4625C25.7581 53.1871 27.9245 50.9289 33.4506 51.6816" stroke="black" stroke-width="1.03125" stroke-linecap="round" stroke-linejoin="round"/>
<path d="M27.172 45.2744L27.1169 52.3978M32.9369 45.3662L34.1486 51.0393" stroke="black" stroke-width="1.125"/>
<path d="M21.4803 45.2744L20.801 48.2119" stroke="black" stroke-width="1.03125" stroke-linecap="round" stroke-linejoin="round"/>
<path fill-rule="evenodd" clip-rule="evenodd" d="M14.4854 54.1785L16.0643 56.0512C16.2479 56.1613 16.4314 56.1613 16.5967 56.0512L18.9467 53.2238L19.9381 51.9938C20.1033 51.8102 20.14 51.6082 20.1217 51.443L22.0311 49.7355L22.435 49.7723C22.2514 49.7355 22.1229 49.6437 22.2514 49.4418L22.692 49.1113L23.0225 49.5336C23.0225 49.5336 22.5451 50.1578 22.49 50.1578H21.976L20.9846 51.0574L21.4252 51.4246L22.0678 53.2238L22.8756 52.6547L22.3615 50.8187L23.4814 49.5887L23.0592 48.9277L23.3529 48.5605C23.3529 48.5605 27.2635 51.0207 28.7873 50.3598C28.824 50.3598 28.8791 48.5973 28.8791 48.5973C28.8791 48.5973 24.8033 48.175 24.7115 47.3672C24.6197 46.5594 25.6295 46.4492 25.6295 46.4492L25.1889 45.8617L25.2807 45.5312L25.9967 46.4125L27.5939 45.0539L37.049 55.8125C37.5631 55.6105 37.6732 55.482 37.71 54.968L28.4568 44.3379L29.1545 43.5852C29.3014 43.4199 29.3381 43.3648 29.3381 43.1078L30.4396 42.1715C30.7281 42.2704 30.9742 42.4647 31.1373 42.7223L34.1482 40.207C34.2217 40.2805 34.4604 40.3539 34.6256 40.2805L39.5643 35.5254L34.185 39.3258L34.0014 39.1973C34.0014 39.032 34.185 39.0137 34.0014 38.7199C33.7811 38.4629 33.4689 38.9586 33.4322 38.9586C33.3771 38.9586 32.6428 38.7016 32.4775 38.3711L32.4408 39.234L31.0639 40.5191L30.0174 40.4641L28.5119 41.9328L28.3283 42.4836L28.567 42.9793C28.567 42.9793 27.7592 43.677 27.7592 43.6402C27.7592 43.5852 27.5939 43.4199 27.5756 43.4016L28.2732 42.7773L28.365 42.3551L28.1447 41.9879C28.0713 42.043 27.19 42.9793 27.135 42.8691L24.5646 40.0234L24.7115 39.491L23.1143 37.7469C22.5268 37.5449 21.5904 37.5082 21.4068 38.7934C21.26 39.0871 20.0482 38.8301 20.0482 38.8301L19.3873 38.977L15.642 44.2461L17.7166 46.743L21.976 41.3637L22.1045 39.8398L22.9857 40.8312C23.2979 40.868 23.5732 40.8863 23.8486 40.7395L26.3639 43.5484L25.9416 43.9707L26.3088 44.3746L26.7494 44.0809L26.9146 44.3195C26.7127 44.4297 26.5475 44.5949 26.3455 44.7051C26.015 44.4848 25.6846 44.2094 25.7029 43.7871L24.2893 44.9621L24.2342 45.1824L20.0299 48.6707L19.6627 48.7258L19.5709 49.8273L22.3064 47.5508V47.2203L22.5818 47.459L24.7115 45.7516C24.7115 45.7516 24.8584 45.9352 24.8033 45.9352C24.7482 45.9352 22.9123 47.6426 22.9123 47.6426L22.8756 47.8262L22.5451 48.1199L22.3615 47.973L19.7912 50.2496H19.424L18.0104 51.6633C17.6432 51.7 17.3311 51.7367 17.0189 51.9387L14.4854 54.1785Z" fill="black" stroke="black" stroke-width="1.03125" stroke-linecap="round" stroke-linejoin="round"/>
</g>
</g>
<defs>
<clipPath id="clip0_51_45">
<rect width="94" height="94" fill="white"/>
</clipPath>
</defs>
</svg>
