<svg width="94" height="94" viewBox="0 0 94 94" fill="none" xmlns="http://www.w3.org/2000/svg">
<g clip-path="url(#clip0_51_54)">
<path fill-rule="evenodd" clip-rule="evenodd" d="M-15.6667 0H109.667V94H-15.6667V0Z" fill="#F41408"/>
<path fill-rule="evenodd" clip-rule="evenodd" d="M-15.6667 62.6667H109.667V94.0001H-15.6667V62.6667Z" fill="#21873B"/>
<path fill-rule="evenodd" clip-rule="evenodd" d="M-15.6667 0H109.667V31.3333H-15.6667V0Z" fill="black"/>
<path fill-rule="evenodd" clip-rule="evenodd" d="M27.5146 27.6125C31.8817 17.9775 44.0625 13.3558 54.6963 17.3312C57.1919 18.1772 59.4875 19.5261 61.4411 21.2945C63.3947 23.0629 64.9649 25.2132 66.0546 27.6125H27.5146ZM22.4229 28.8658C18.9672 28.6305 15.5357 28.1197 12.1613 27.3383C11.3583 27.0837 11.3192 26.6333 11.4171 26.3004C11.515 25.9675 12.0242 25.5954 12.6313 25.7129C13.7279 25.987 18.2713 27.0837 22.4229 28.8658ZM46.8238 12.0437C46.0013 7.9312 45.8054 3.42703 45.8838 2.6437C45.9621 1.87995 46.4125 1.76245 46.8042 1.76245C47.1958 1.76245 47.7246 2.11495 47.7246 2.68287C47.7246 3.72078 47.705 7.97037 46.8238 12.0829V12.0437ZM49.0954 12.1416C48.7706 9.00453 48.751 5.84334 49.0367 2.70245C49.1933 1.9387 49.6633 1.84078 50.0354 1.87995C50.4271 1.89953 50.9167 2.2912 50.8579 2.85912C50.76 3.89703 50.3488 8.12703 49.0954 12.1416ZM51.1321 12.3962C51.0929 8.22495 51.7196 3.72078 51.935 2.9962C52.1504 2.23245 52.64 2.1737 53.0121 2.23245C53.4038 2.2912 53.8542 2.72203 53.7563 3.27037C53.5604 4.30828 52.7379 8.47953 51.1321 12.3962ZM53.2863 12.827C53.6388 8.67537 54.7158 4.24953 55.0096 3.52495C55.3033 2.80037 55.7929 2.78078 56.1454 2.85912C56.5371 2.95703 56.9288 3.40745 56.7917 3.95578C56.4783 4.95453 55.2838 9.04745 53.3058 12.827H53.2863ZM55.4208 13.4537C56.1846 9.3412 57.6729 5.01328 58.0254 4.30828C58.3975 3.62287 58.8675 3.62287 59.2396 3.74037C59.5921 3.85787 59.9642 4.36703 59.7683 4.8762C58.5888 7.86423 57.1333 10.7358 55.4208 13.4537ZM57.3988 14.1979C58.5346 10.1441 60.4342 5.97287 60.865 5.28745C61.2958 4.62162 61.7659 4.68037 62.1184 4.83703C62.4709 4.97412 62.7842 5.50287 62.5296 6.01203C62.04 6.95203 60.0817 10.7904 57.3988 14.1979ZM59.3571 15.1183C60.5219 12.1245 61.9643 9.24621 63.6654 6.5212C64.1354 5.89453 64.625 5.99245 64.9579 6.1687C65.0565 6.22707 65.1424 6.30451 65.2107 6.39647C65.279 6.48844 65.3282 6.5931 65.3556 6.70433C65.3829 6.81556 65.3878 6.93112 65.37 7.04427C65.3521 7.15741 65.3119 7.26586 65.2517 7.36328C64.6642 8.26412 62.3338 11.9458 59.3571 15.1183ZM61.1979 16.1954C63.0975 12.3962 65.7609 8.55787 66.3092 7.97037C66.8575 7.38287 67.3275 7.51995 67.6408 7.71578C67.7343 7.78196 67.8136 7.8661 67.8742 7.96328C67.9347 8.06046 67.9753 8.16873 67.9935 8.28177C68.0118 8.39482 68.0073 8.51036 67.9804 8.62165C67.9534 8.73294 67.9046 8.83775 67.8367 8.92995C67.1513 9.79162 64.4683 13.2579 61.1783 16.1758L61.1979 16.1954ZM62.9213 17.4095C65.1929 13.767 68.2088 10.1637 68.8158 9.63495C69.4033 9.08662 69.8733 9.24328 70.1671 9.47828C70.2528 9.55283 70.3225 9.64392 70.372 9.7461C70.4216 9.84827 70.4499 9.95941 70.4554 10.0728C70.4609 10.1863 70.4434 10.2996 70.404 10.4061C70.3645 10.5126 70.3039 10.61 70.2259 10.6925C69.4817 11.4954 66.4854 14.7462 62.9213 17.4095ZM64.5467 18.7608C66.5334 16.1416 68.7485 13.7037 71.1658 11.4758C71.8121 10.9862 72.2429 11.182 72.5171 11.417C72.5983 11.4998 72.6615 11.5985 72.7028 11.7068C72.7441 11.8152 72.7626 11.9309 72.757 12.0467C72.7515 12.1626 72.7222 12.276 72.6708 12.3799C72.6194 12.4839 72.547 12.5761 72.4583 12.6508C71.6554 13.395 68.3459 16.3912 64.5467 18.7608ZM66.035 20.2295C68.2544 17.774 70.6928 15.5257 73.32 13.5125C74.025 13.062 74.4363 13.297 74.6908 13.5712C74.9258 13.8258 74.9846 14.4329 74.495 14.7854C71.8326 16.834 69.0026 18.6552 66.035 20.2295ZM67.3079 21.757C69.7564 19.4777 72.3969 17.4138 75.2 15.5883C75.9246 15.1966 76.3163 15.4708 76.5317 15.7645C76.7667 16.0387 76.7471 16.6458 76.2575 16.9591C75.3175 17.5466 71.4988 20.0141 67.3079 21.757ZM68.4634 23.3825C71.1116 21.3161 73.9284 19.4754 76.8842 17.8795C77.6675 17.5466 78.0396 17.8404 78.2354 18.1341C78.4313 18.4475 78.3529 19.035 77.8438 19.3091C74.8265 20.9205 71.6828 22.2828 68.4438 23.3825H68.4634ZM69.5208 25.2625C72.3733 23.4245 75.3733 21.8262 78.49 20.4841C79.2929 20.21 79.6258 20.5429 79.7825 20.8562C79.9588 21.1695 79.8413 21.757 79.2733 21.992C78.2354 22.4229 73.9858 24.2245 69.5208 25.2625ZM70.3434 27.0641C73.3603 25.4521 76.5041 24.0897 79.7434 22.9908C80.5659 22.795 80.8596 23.1475 80.9967 23.4804C81.1142 23.7937 80.9379 24.3812 80.37 24.5575C79.2929 24.9295 74.8867 26.3787 70.3434 27.0641ZM71.0092 28.9833C74.1651 27.6181 77.4267 26.5112 80.7617 25.6737C81.5842 25.5562 81.8584 25.9087 81.9563 26.2612C82.0542 26.5941 81.8192 27.1424 81.2317 27.2991C80.1154 27.5537 75.5917 28.67 71.0092 28.9833ZM44.6108 12.1416C43.6819 9.11542 43.0458 6.00697 42.7113 2.85912C42.7113 2.09537 43.1617 1.91912 43.5338 1.87995C43.9254 1.86037 44.5129 2.1737 44.5521 2.72203C44.65 3.75995 45.0613 7.98995 44.6304 12.1416H44.6108ZM42.4567 12.3962C41.2318 9.46493 40.2939 6.4218 39.6563 3.30953C39.5779 2.5262 40.0088 2.33037 40.3808 2.27162C40.7725 2.21287 41.36 2.46745 41.4775 3.01578C42.0901 6.10606 42.4179 9.24603 42.4567 12.3962ZM40.3025 12.827C38.7986 9.99934 37.5658 7.03554 36.6208 3.97537C36.4642 3.21162 36.8754 2.97662 37.2475 2.8787C37.6196 2.80037 38.2267 2.9962 38.4029 3.54453C38.6967 4.54328 39.9108 8.6362 40.2829 12.8075L40.3025 12.827ZM38.2463 13.4145C36.4965 10.7199 35.0017 7.86794 33.7813 4.89578C33.5658 4.15162 33.9379 3.87745 34.2904 3.75995C34.6625 3.64245 35.2892 3.79912 35.5046 4.30828C35.8963 5.28745 37.5021 9.28245 38.2463 13.395V13.4145ZM36.2683 14.1C34.261 11.5583 32.4911 8.83789 30.9808 5.97287C30.7067 5.24828 31.0592 4.93495 31.4117 4.79787C31.7642 4.6412 32.3908 4.7587 32.665 5.26787C33.1546 6.20787 35.1129 10.0658 36.2683 14.1ZM34.2513 15.0791C31.9993 12.7094 29.9674 10.1399 28.1804 7.40245C27.8475 6.71703 28.1608 6.38412 28.4938 6.20787C28.8267 6.03162 29.4729 6.09037 29.7863 6.57995C30.3738 7.48078 32.7238 11.1429 34.2513 15.0791ZM32.4104 16.1366C29.9508 13.9449 27.6899 11.5398 25.6542 8.94953C25.2429 8.2837 25.5171 7.9312 25.85 7.71578C26.1438 7.51995 26.8292 7.51995 27.1621 7.98995C27.8279 8.83203 30.5108 12.2983 32.4104 16.117V16.1366ZM30.7067 17.3116C28.0444 15.3186 25.561 13.0973 23.2846 10.6729C22.8146 10.0462 23.0692 9.6937 23.3629 9.4587C23.5699 9.33043 23.8143 9.2761 24.0561 9.30455C24.298 9.333 24.523 9.44256 24.6946 9.61537C25.4388 10.3987 28.4546 13.6691 30.7067 17.3116ZM29.0421 18.6825C26.1987 16.9118 23.5124 14.9004 21.0129 12.6704C20.4646 12.0829 20.68 11.6912 20.9542 11.4366C21.1522 11.2906 21.3943 11.2168 21.6402 11.2275C21.886 11.2381 22.1208 11.3327 22.3054 11.4954C23.1279 12.22 26.4179 15.2162 29.0421 18.6629V18.6825ZM27.5929 20.0533C24.5946 18.5082 21.7319 16.7133 19.035 14.6875C18.4475 14.1391 18.6238 13.7475 18.8783 13.4733C19.1133 13.1991 19.7596 13.062 20.2296 13.4145C22.8724 15.4163 25.3361 17.6442 27.5929 20.0729V20.0533ZM26.2221 21.6591C23.0823 20.359 20.056 18.8 17.1746 16.9983C16.5283 16.5087 16.6654 16.0779 16.8808 15.8037C17.0963 15.51 17.7229 15.3141 18.2321 15.6275C19.1721 16.2345 22.9908 18.6629 26.2221 21.6591ZM24.9883 23.3825C20.6408 22.0116 16.1954 19.9358 15.51 19.4854C14.805 19.0545 14.9225 18.6237 15.0988 18.3104C15.275 17.997 15.8821 17.762 16.4304 18.0362C17.4096 18.565 21.4829 20.68 24.9883 23.3825ZM23.9504 25.1449C19.4854 24.107 14.8833 22.4033 14.1392 22.0116C13.4146 21.62 13.4538 21.1891 13.63 20.8758C13.7867 20.5625 14.3546 20.2687 14.9225 20.4841C15.9604 20.9345 20.21 22.7166 23.9504 25.1449ZM23.1279 26.9074C19.714 26.3826 16.3478 25.5836 13.0621 24.5183C12.2788 24.2049 12.3179 23.7545 12.4354 23.4412C12.5725 23.1083 13.1208 22.7754 13.6888 22.9516C14.7854 23.3237 19.1721 24.7729 23.1279 26.9074Z" fill="#F31509"/>
<path fill-rule="evenodd" clip-rule="evenodd" d="M22.4229 28.8658C18.9672 28.6304 15.5357 28.1196 12.1613 27.3383C11.3583 27.0837 11.3192 26.6333 11.4171 26.3003C11.515 25.9674 12.0242 25.5953 12.6313 25.7128C13.7279 25.987 18.2713 27.0837 22.4229 28.8658Z" fill="#F31509"/>
<path fill-rule="evenodd" clip-rule="evenodd" d="M9.67407 27.7102H84.3257V30.1777H9.67407V27.7102Z" fill="black"/>
</g>
<defs>
<clipPath id="clip0_51_54">
<rect width="94" height="94" fill="white"/>
</clipPath>
</defs>
</svg>
